<?xml version="1.0" encoding="utf-8"?>
<!-- Generator: Adobe Illustrator 18.0.0, SVG Export Plug-In . SVG Version: 6.00 Build 0)  -->
<!DOCTYPE svg PUBLIC "-//W3C//DTD SVG 1.1//EN" "http://www.w3.org/Graphics/SVG/1.1/DTD/svg11.dtd">
<svg version="1.1" id="Capa_1" xmlns="http://www.w3.org/2000/svg" xmlns:xlink="http://www.w3.org/1999/xlink" x="0px" y="0px"
	 viewBox="0 0 3401.6 2551.2" enable-background="new 0 0 3401.6 2551.2" xml:space="preserve">
<g>
	<g>
		<g>
			<path fill="#575757" d="M1700.8,1799.3c-33.8,0-61.3-27.5-61.3-61.3v-89.3h-122.8c-33.8,0-61.3-27.5-61.3-61.3
				c0-33.8,27.5-61.3,61.3-61.3H1772c52.1,0,94.6-42.5,94.6-94.6c0-52.1-42.5-94.6-94.6-94.6h-142.1
				c-119.8,0-217.2-97.4-217.2-217.2c0-119.8,97.4-217.2,217.2-217.2h9.7v-87.3c0-33.8,27.5-61.3,61.3-61.3s61.3,27.5,61.3,61.3
				v87.3h118.3c33.8,0,61.3,27.5,61.3,61.3s-27.5,61.3-61.3,61.3h-250.7c-52.1,0-94.6,42.5-94.6,94.6c0,52.1,42.5,94.6,94.6,94.6
				H1772c119.6,0,216.8,97.4,216.8,217.2c0,57.4-22.3,111.6-62.7,152.5c-40.4,40.9-94.3,64-151.5,64.7h-12.6v89.3
				C1762.1,1771.8,1734.6,1799.3,1700.8,1799.3z M1516.7,1550.9c-20.2,0-36.5,16.3-36.5,36.5c0,20.2,16.3,36.5,36.5,36.5h147.6V1738
				c0,20.2,16.3,36.5,36.5,36.5s36.5-16.3,36.5-36.5v-114.1h37.2c104.5-1.4,189.6-87.9,189.6-192.4c0-106.1-86.1-192.4-192-192.4
				h-142.1c-65.9,0-119.4-53.5-119.4-119.4c0-65.9,53.5-119.4,119.4-119.4h250.7c20.2,0,36.5-16.3,36.5-36.5
				c0-20.2-16.3-36.5-36.5-36.5h-143.1V815.1c0-20.2-16.3-36.5-36.5-36.5s-36.5,16.3-36.5,36.5v112.1h-34.5
				c-106.1,0-192.4,86.3-192.4,192.4c0,106.1,86.3,192.4,192.4,192.4H1772c65.9,0,119.4,53.5,119.4,119.4
				c0,65.9-53.5,119.4-119.4,119.4H1516.7L1516.7,1550.9z"/>
		</g>
	</g>
</g>
</svg>
