<?xml version="1.0" encoding="utf-8"?>
<!-- Generator: Adobe Illustrator 18.0.0, SVG Export Plug-In . SVG Version: 6.00 Build 0)  -->
<!DOCTYPE svg PUBLIC "-//W3C//DTD SVG 1.1//EN" "http://www.w3.org/Graphics/SVG/1.1/DTD/svg11.dtd">
<svg version="1.1" id="Layer_1" xmlns="http://www.w3.org/2000/svg" xmlns:xlink="http://www.w3.org/1999/xlink" x="0px" y="0px"
	 viewBox="0 0 3401.6 2551.2" enable-background="new 0 0 3401.6 2551.2" xml:space="preserve">
<g>
	<g>
		<path fill="#FFFFFF" d="M1129,159.4C1051.9,56.6,947.8,0,836,0C724.1,0,620,56.6,543,159.4c-73.3,97.7-113.7,226.8-113.7,363.4
			c0,136.6,40.4,265.6,113.7,363.4c42.9,57.2,94.1,100,150.4,126.8l-86,1293.8c-4.2,63,18.2,125.7,61.3,171.8
			c43.2,46.1,104.2,72.6,167.4,72.6c63.2,0,124.2-26.5,167.3-72.6c43.2-46.1,65.5-108.8,61.3-171.8l-86-1293.8
			c56.3-26.8,107.5-69.6,150.4-126.8c73.3-97.7,113.7-226.8,113.7-363.4S1202.3,257.1,1129,159.4z M917.9,2398.6
			c-21.4,22.9-50.5,35.5-81.9,35.5c-31.4,0-60.5-12.6-81.9-35.5c-21.4-22.9-32.1-52.8-30-84.1l84.5-1270.3
			c9.1,0.8,18.2,1.3,27.4,1.3c9.2,0,18.3-0.5,27.4-1.3l84.5,1270.3C950,2345.9,939.3,2375.7,917.9,2398.6z M836,928.5
			c-21,0-41.4-3.2-61.1-9.2c-1.6-0.6-3.3-1.2-5-1.6c-128-42-223.6-203.1-223.6-395c0-223.7,130-405.7,289.7-405.7
			c159.7,0,289.7,182,289.7,405.7S995.7,928.5,836,928.5z"/>
	</g>
</g>
<g>
	<g>
		<path fill="#FFFFFF" d="M2972.3,1524.3V65.9l-0.5,0.2c1.7-12.9-0.9-26.4-8.2-38.3c-17-27.5-53-36-80.5-19
			c-238.7,147.6-381.2,403.2-381.3,683.8c0,0,0,0.1,0,0.1v766.3c0,67.2,53.7,122,120.4,124v792.4c0,96.5,78.5,175.1,175.1,175.1
			c96.5,0,175.1-78.5,175.1-175.1v-850.7C2972.3,1524.5,2972.3,1524.4,2972.3,1524.3z M2626,1466.1c-4,0-7.2-3.2-7.2-7.2V692.7
			c0,0,0,0,0-0.1c0-202.4,86.8-389.6,236.5-518.9v1292.3H2626z M2855.3,2375.3c0,32-26,58-58,58c-32,0-58-26-58-58v-792.2h116.1
			L2855.3,2375.3L2855.3,2375.3z"/>
	</g>
</g>
<g>
	<g>
		<path fill="#FFFFFF" d="M2083.5,0c-32.3,0-58.5,26.2-58.5,58.5v664.7h-149.1V58.5c0-32.3-26.2-58.5-58.5-58.5
			c-32.3,0-58.5,26.2-58.5,58.5v664.7h-149.1V58.5c0-32.3-26.2-58.5-58.5-58.5s-58.5,26.2-58.5,58.5v847c0,95.4,77.6,173,173,173
			h10.4l-82.1,1234c-4.1,61.5,17.7,122.7,59.9,167.8c42.2,45.1,101.7,70.9,163.5,70.9c61.7,0,121.3-25.9,163.5-70.9
			c42.2-45.1,64-106.2,59.9-167.7l-82.1-1234h10.4c95.4,0,173-77.6,173-173v-847C2142,26.2,2115.8,0,2083.5,0z M1895.3,2400.3
			c-20.4,21.8-48.1,33.9-78,33.9c-29.9,0-57.6-12-78-33.9c-20.4-21.8-30.6-50.2-28.6-80l82.6-1241.8h47.9l82.6,1241.8
			C1925.9,2350.1,1915.7,2378.5,1895.3,2400.3z M2024.9,905.5c0,30.9-25.1,55.9-55.9,55.9h-232.3c-0.1,0-0.2,0-0.2,0h-70.8
			c-30.9,0-55.9-25.1-55.9-55.9v-65.3h415.2V905.5z"/>
	</g>
</g>
</svg>
