<?xml version="1.0" encoding="utf-8"?>
<!-- Generator: Adobe Illustrator 18.0.0, SVG Export Plug-In . SVG Version: 6.00 Build 0)  -->
<!DOCTYPE svg PUBLIC "-//W3C//DTD SVG 1.1//EN" "http://www.w3.org/Graphics/SVG/1.1/DTD/svg11.dtd">
<svg version="1.1" id="Capa_1" xmlns="http://www.w3.org/2000/svg" xmlns:xlink="http://www.w3.org/1999/xlink" x="0px" y="0px"
	 viewBox="0 0 3401.6 2551.2" enable-background="new 0 0 3401.6 2551.2" xml:space="preserve">
<path fill="#575757" d="M2635.3,886.7c-52.8-97.1-160.9-137.3-289.1-90.2l-465.4,178.1l-368.9-397c-46.8-49.8-129-72.6-187.8-48.4
	c-134.1,55.6-159.6,189.2-79.7,289.8l269.6,310.4l-313.4,139.4l-405-113.4c-16.7-4.6-34.7,1.8-44.5,16.1
	c-9.9,14.4-9.4,33.5,1.1,47.3l398.4,532.6c17,22.7,41.5,16.3,49.3,12.8l1322.5-592.3C2604.9,1144.5,2701.9,1009.1,2635.3,886.7z
	 M2491.5,1097l-1295.1,579.9L889,1266.2l303.8,85c9,2.5,18.8,1.8,27.5-1.9l377.2-167.6c19.1-7.8,36.1-37,14.2-64l-305.8-351.8
	c-22.1-25.5-53-117.8,44.1-158.9c34.7-14.7,76.9-0.9,102.4,26.2l387.5,417c11.3,12.2,28.9,16.3,44.3,10.3l493.9-189
	c101.9-35.1,162.8,6.9,183.9,51C2607.5,1016.9,2527.1,1083.4,2491.5,1097z"/>
</svg>
