<?xml version="1.0" encoding="utf-8"?>
<!-- Generator: Adobe Illustrator 18.0.0, SVG Export Plug-In . SVG Version: 6.00 Build 0)  -->
<!DOCTYPE svg PUBLIC "-//W3C//DTD SVG 1.1//EN" "http://www.w3.org/Graphics/SVG/1.1/DTD/svg11.dtd">
<svg version="1.1" id="Capa_1" xmlns="http://www.w3.org/2000/svg" xmlns:xlink="http://www.w3.org/1999/xlink" x="0px" y="0px"
	 viewBox="0 0 3401.6 2551.2" enable-background="new 0 0 3401.6 2551.2" xml:space="preserve">
<g>
	<g>
		<g>
			<path fill="#FFFFFF" d="M1836.5,1083c-18.1-15.5-38.8-25.8-62-33.6c-23.3-5.2-49.1-7.8-80.1-7.8h-118.9
				c-20.7,0-33.6,5.2-43.9,12.9c-7.8,7.8-12.9,23.3-12.9,43.9V1432c0,15.5,0,25.8,5.2,36.2c2.6,10.3,7.8,15.5,15.5,20.7
				c7.8,5.2,20.7,7.8,38.8,7.8h118.9c20.7,0,38.8-2.6,56.9-5.2c15.5-2.6,31-7.8,46.5-12.9c15.5-7.8,28.4-15.5,38.8-25.8
				c15.5-15.5,28.4-31,38.8-49.1c10.3-18.1,18.1-38.8,23.3-62c5.2-23.3,7.8-46.5,7.8-75C1908.9,1186.4,1885.6,1124.4,1836.5,1083z
				 M1769.3,1403.5c-7.8,5.2-15.5,10.3-23.3,12.9c-10.3,2.6-18.1,5.2-25.8,5.2c-7.8,0-20.7,0-36.2,0h-69.8v-310.2h62
				c28.4,0,51.7,2.6,72.4,10.3c20.7,5.2,36.2,20.7,49.1,43.9s20.7,56.9,20.7,100.8C1815.8,1333.7,1800.3,1377.7,1769.3,1403.5z"/>
			<path fill="#FFFFFF" d="M2658.4,509.2l-2.6-2.6V504L2164.8,12.9l-2.6-2.6c0,0-2.6,0-2.6-2.6c0,0-2.6,0-2.6-2.6
				c-7.8-5.2-15.5-5.2-25.8-5.2H913.7c-46.5,0-90.5,18.1-121.5,49.1l-2.6,2.6c-31,31-51.7,77.5-51.7,124.1v2199.6
				c0,49.1,20.7,93.1,51.7,124.1c31,31,77.5,51.7,124.1,51.7h1574.1c49.1,0,93.1-20.7,124.1-51.7c31-31,51.7-77.5,51.7-124.1V535
				C2663.6,524.7,2661,517,2658.4,509.2z M2180.3,186.1l292.1,292.1h-214.5c-20.7,0-41.4-7.8-54.3-23.3
				c-12.9-12.9-23.3-33.6-23.3-54.3L2180.3,186.1L2180.3,186.1z M2552.5,2375.4c0,18.1-7.8,33.6-20.7,46.5
				c-12.9,12.9-28.4,20.7-46.5,20.7H913.7c-18.1,0-33.6-7.8-46.5-18.1c-12.9-12.9-18.1-28.4-18.1-46.5V173.2
				c0-18.1,7.8-33.6,20.7-46.5l2.6-2.6c12.9-10.3,28.4-18.1,43.9-18.1h1158v292.1c0,51.7,20.7,98.2,56.9,134.4
				c33.6,33.6,82.7,54.3,134.4,54.3h286.9L2552.5,2375.4L2552.5,2375.4z"/>
			<path fill="#FFFFFF" d="M1399.7,1077.9c-12.9-12.9-28.4-20.7-49.1-25.8c-18.1-5.2-46.5-7.8-80.1-7.8h-118.9
				c-20.7,0-36.2,5.2-43.9,12.9c-10.3,7.8-12.9,23.3-12.9,43.9v351.5c0,18.1,5.2,31,12.9,41.4c7.8,10.3,20.7,12.9,33.6,12.9
				c12.9,0,23.3-5.2,33.6-15.5c7.8-10.3,12.9-23.3,12.9-41.4v-129.2h85.3c56.9,0,98.2-12.9,126.7-36.2s43.9-59.4,43.9-106
				c0-20.7-2.6-41.4-10.3-59.4C1422.9,1103.7,1412.6,1088.2,1399.7,1077.9z M1337.6,1222.6c-7.8,10.3-18.1,18.1-33.6,23.3
				c-15.5,5.2-33.6,7.8-54.3,7.8h-62V1114h62c41.4,0,67.2,7.8,82.7,20.7c12.9,12.9,18.1,28.4,18.1,49.1
				C1348,1199.3,1345.4,1212.3,1337.6,1222.6z"/>
			<path fill="#FFFFFF" d="M2045.9,1039.1c-15.5,2.6-25.8,5.2-33.6,10.3c-7.8,2.6-15.5,10.3-18.1,18.1c-5.2,7.8-5.2,18.1-5.2,33.6
				v348.9c0,18.1,5.2,33.6,12.9,41.4c7.8,10.3,20.7,12.9,33.6,12.9c12.9,0,23.3-5.2,33.6-12.9c7.8-10.3,12.9-23.3,12.9-41.4v-149.9
				h152.5c12.9,0,23.3-2.6,31-10.3c7.8-5.2,10.3-15.5,10.3-25.8c0-10.3-2.6-18.1-10.3-25.8c-7.8-5.2-18.1-10.3-31-10.3H2082v-116.3
				H2263c15.5,0,25.8-2.6,33.6-10.3c7.8-7.8,10.3-15.5,10.3-25.8c0-10.3-2.6-18.1-10.3-25.8c-7.8-7.8-18.1-10.3-33.6-10.3
				L2045.9,1039.1L2045.9,1039.1z"/>
		</g>
	</g>
</g>
</svg>
