<?xml version="1.0" encoding="utf-8"?>
<!-- Generator: Adobe Illustrator 18.0.0, SVG Export Plug-In . SVG Version: 6.00 Build 0)  -->
<!DOCTYPE svg PUBLIC "-//W3C//DTD SVG 1.1//EN" "http://www.w3.org/Graphics/SVG/1.1/DTD/svg11.dtd">
<svg version="1.1" id="Capa_1" xmlns="http://www.w3.org/2000/svg" xmlns:xlink="http://www.w3.org/1999/xlink" x="0px" y="0px"
	 viewBox="0 0 28 28" enable-background="new 0 0 28 28" xml:space="preserve">
<path fill="#FFFFFF" d="M24.2,0H3.8C1.7,0,0,1.7,0,3.8v20.5C0,26.3,1.7,28,3.8,28h10.1l0-10h-2.6c-0.3,0-0.6-0.3-0.6-0.6l0-3.2
	c0-0.3,0.3-0.6,0.6-0.6h2.6v-3.1c0-3.6,2.2-5.6,5.4-5.6h2.6c0.3,0,0.6,0.3,0.6,0.6v2.7c0,0.3-0.3,0.6-0.6,0.6l-1.6,0
	c-1.8,0-2.1,0.8-2.1,2.1v2.7h3.9c0.4,0,0.7,0.3,0.6,0.7l-0.4,3.2c0,0.3-0.3,0.5-0.6,0.5h-3.5l0,10h6c2.1,0,3.8-1.7,3.8-3.8V3.8
	C28,1.7,26.3,0,24.2,0z"/>
</svg>
