<?xml version="1.0" encoding="utf-8"?>
<!-- Generator: Adobe Illustrator 18.0.0, SVG Export Plug-In . SVG Version: 6.00 Build 0)  -->
<!DOCTYPE svg PUBLIC "-//W3C//DTD SVG 1.1//EN" "http://www.w3.org/Graphics/SVG/1.1/DTD/svg11.dtd">
<svg version="1.1" id="Capa_1" xmlns="http://www.w3.org/2000/svg" xmlns:xlink="http://www.w3.org/1999/xlink" x="0px" y="0px"
	 viewBox="0 0 28 28" enable-background="new 0 0 28 28" xml:space="preserve">
<g>
	<path fill="#FFFFFF" d="M14,11.2c-1.6,0-2.8,1.3-2.8,2.8c0,1.6,1.3,2.8,2.8,2.8c1.6,0,2.8-1.3,2.8-2.8C16.8,12.4,15.6,11.2,14,11.2
		z"/>
	<path fill="#FFFFFF" d="M25,0H3C1.4,0,0,1.4,0,3V25c0,1.7,1.4,3,3,3H25c1.7,0,3-1.4,3-3V3C28,1.4,26.6,0,25,0z M23,17.4
		c0,3.1-2.5,5.6-5.6,5.6h-6.8C7.5,23,5,20.5,5,17.4v-6.8C5,7.5,7.5,5,10.6,5h6.8c3.1,0,5.6,2.5,5.6,5.6V17.4z"/>
	<path fill="#FFFFFF" d="M17.4,6.7h-6.8c-2.2,0-3.9,1.8-3.9,3.9v6.8c0,2.2,1.8,3.9,3.9,3.9h6.8c2.2,0,3.9-1.8,3.9-3.9v-6.8
		C21.3,8.5,19.5,6.7,17.4,6.7z M14,18.5c-2.5,0-4.5-2-4.5-4.5s2-4.5,4.5-4.5c2.5,0,4.5,2,4.5,4.5S16.5,18.5,14,18.5z M18.8,9.8
		c-0.3,0-0.6-0.3-0.6-0.6c0-0.3,0.3-0.6,0.6-0.6c0.3,0,0.6,0.3,0.6,0.6C19.4,9.5,19.2,9.8,18.8,9.8z"/>
</g>
</svg>
