<?xml version="1.0" encoding="utf-8"?>
<!-- Generator: Adobe Illustrator 18.0.0, SVG Export Plug-In . SVG Version: 6.00 Build 0)  -->
<!DOCTYPE svg PUBLIC "-//W3C//DTD SVG 1.1//EN" "http://www.w3.org/Graphics/SVG/1.1/DTD/svg11.dtd">
<svg version="1.1" id="Capa_1" xmlns="http://www.w3.org/2000/svg" xmlns:xlink="http://www.w3.org/1999/xlink" x="0px" y="0px"
	 viewBox="405 205 150 150" enable-background="new 405 205 150 150" xml:space="preserve">
<g>
	<path fill="#6A453B" d="M480,264.9c-8.3,0-15.1,6.8-15.1,15.1c0,8.3,6.8,15.1,15.1,15.1c8.3,0,15.1-6.8,15.1-15.1
		C495.1,271.7,488.3,264.9,480,264.9z"/>
	<path fill="#6A453B" d="M538.7,205H421.3c-9,0-16.3,7.3-16.3,16.3v117.4c0,9,7.3,16.3,16.3,16.3h117.4c9,0,16.3-7.3,16.3-16.3
		V221.3C555,212.3,547.7,205,538.7,205z M528.2,298.1c0,16.6-13.5,30.1-30.1,30.1h-36.2c-16.6,0-30.1-13.5-30.1-30.1v-36.2
		c0-16.6,13.5-30.1,30.1-30.1h36.2c16.6,0,30.1,13.5,30.1,30.1V298.1z"/>
	<path fill="#6A453B" d="M498.1,240.8h-36.2c-11.6,0-21.1,9.5-21.1,21.1v36.2c0,11.6,9.5,21.1,21.1,21.1h36.2
		c11.6,0,21.1-9.5,21.1-21.1v-36.2C519.2,250.3,509.7,240.8,498.1,240.8z M480,304.1c-13.3,0-24.1-10.8-24.1-24.1
		c0-13.3,10.8-24.1,24.1-24.1s24.1,10.8,24.1,24.1C504.1,293.3,493.3,304.1,480,304.1z M505.9,257.3c-1.8,0-3.2-1.4-3.2-3.2
		s1.4-3.2,3.2-3.2s3.2,1.4,3.2,3.2C509.1,255.9,507.7,257.3,505.9,257.3z"/>
</g>
</svg>
