<?xml version="1.0" encoding="utf-8"?>
<!-- Generator: Adobe Illustrator 18.0.0, SVG Export Plug-In . SVG Version: 6.00 Build 0)  -->
<!DOCTYPE svg PUBLIC "-//W3C//DTD SVG 1.1//EN" "http://www.w3.org/Graphics/SVG/1.1/DTD/svg11.dtd">
<svg version="1.1" id="Capa_1" xmlns="http://www.w3.org/2000/svg" xmlns:xlink="http://www.w3.org/1999/xlink" x="0px" y="0px"
	 viewBox="0 0 3401.6 2551.2" enable-background="new 0 0 3401.6 2551.2" xml:space="preserve">
<g>
	<g>
		<path fill="#FFFFFF" d="M2490.8,1769.5c-10.1,0-20.2-3.7-28.1-11.2l-473.3-444.1c-16.5-15.5-17.4-41.5-1.8-58.1
			c15.5-16.7,41.5-17.4,58.2-1.8l473.3,444.1c16.5,15.5,17.4,41.5,1.8,58.1C2512.7,1765.1,2501.8,1769.5,2490.8,1769.5z"/>
		<path fill="#FFFFFF" d="M910.7,1769.5c-10.9,0-21.9-4.4-30-13c-15.5-16.5-14.7-42.6,1.8-58.1l473.5-444.1
			c16.6-15.5,42.7-14.8,58.2,1.8c15.5,16.5,14.7,42.6-1.8,58.1l-473.5,444.1C931,1765.8,920.8,1769.5,910.7,1769.5z"/>
	</g>
	<path fill="#FFFFFF" d="M2770.7,2182.4H630.9c-113.4,0-205.7-92.2-205.7-205.7V574.4c0-113.4,92.3-205.7,205.7-205.7h2139.9
		c113.4,0,205.7,92.2,205.7,205.7v1402.4C2976.4,2090.2,2884.1,2182.4,2770.7,2182.4z M630.9,451c-68,0-123.4,55.4-123.4,123.4
		v1402.4c0,68,55.4,123.4,123.4,123.4h2139.9c68,0,123.4-55.4,123.4-123.4V574.4c0-68-55.4-123.4-123.4-123.4H630.9z"/>
	<path fill="#FFFFFF" d="M1700.8,1482.2c-54.7,0-109.4-18.2-151-54.5L493.5,506.3c-17.1-14.9-18.9-40.9-4-58.1
		c15.1-17.1,41-18.7,58.1-3.9l1056.3,921.4c52.6,45.8,141.4,45.8,193.9,0l1055-919.9c17-14.9,42.9-13.2,58.1,3.9
		c14.9,17.2,13.2,43.1-3.9,58.1l-1055,919.9C1810.1,1464.1,1755.5,1482.2,1700.8,1482.2z"/>
</g>
</svg>
