<?xml version="1.0" encoding="utf-8"?>
<!-- Generator: Adobe Illustrator 18.0.0, SVG Export Plug-In . SVG Version: 6.00 Build 0)  -->
<!DOCTYPE svg PUBLIC "-//W3C//DTD SVG 1.1//EN" "http://www.w3.org/Graphics/SVG/1.1/DTD/svg11.dtd">
<svg version="1.1" id="Capa_1" xmlns="http://www.w3.org/2000/svg" xmlns:xlink="http://www.w3.org/1999/xlink" x="0px" y="0px"
	 viewBox="0 0 3401.6 2551.2" enable-background="new 0 0 3401.6 2551.2" xml:space="preserve">
<g>
	<g>
		<path fill="#FFFFFF" d="M1837.6,1315.4L2764.2,296c20.4-22.5,25.5-53.6,13.2-81.4c-12.3-27.7-38.7-45-69.1-45h-289.8l101-106.5
			c14.2-15,13.6-38.7-1.4-52.9c-15-14.2-38.6-13.6-52.9,1.4l-149.8,158H693.3c-30.3,0-56.8,17.2-69.1,45
			c-12.3,27.7-7.2,58.9,13.2,81.4L1564,1315.4c9.9,10.9,21,20.4,32.9,28.5v898.2c0,47.4-30.1,89.8-74.9,105.4l-310.5,107.9
			c-0.8,0.3-1.5,0.5-2.2,0.9c-21.9,9.2-34,32-29.2,55.3c4.7,23.3,24.6,39.6,48.4,39.6h944.6c23.8,0,43.7-16.3,48.4-39.6
			c4.7-23.3-7.3-46.1-29.2-55.3c-0.7-0.3-1.5-0.6-2.2-0.9l-310.5-107.9c-44.8-15.6-74.9-57.9-74.9-105.4v-898.2
			C1816.6,1335.8,1827.7,1326.3,1837.6,1315.4z M2347.6,244.4h360.7c0.2,0,0.4,0,0.4,0c0.2,0.2,0.4,0.7,0.5,0.9c0,0-0.1,0.1-0.3,0.4
			l-230.1,253.2h-183.9c16.8-53.9,6.1-116.2-30.7-166.4L2347.6,244.4z M1855,2418.1l167.7,58.3h-643.9l167.7-58.3
			c74.9-26,125.1-96.8,125.1-176v-868.5c1.6,0.3,3.3,0.4,5,0.7c0.9,0.1,1.8,0.2,2.6,0.3c2,0.2,4,0.4,6,0.6c0.6,0,1.2,0.1,1.8,0.1
			c4.6,0.3,9.1,0.6,13.7,0.6c4.6,0,9.2-0.2,13.7-0.6c0.6,0,1.2-0.1,1.7-0.1c2-0.2,4-0.4,6-0.6c0.8-0.1,1.7-0.2,2.5-0.3
			c1.7-0.2,3.4-0.4,5.1-0.7v868.5C1729.9,2321.3,1780.2,2392.1,1855,2418.1z M1782.3,1265.1c-9,9.9-19.5,18-31,23.9
			c-0.3,0.1-0.6,0.2-0.8,0.4c-31.1,15.7-68.2,15.7-99.3,0c-0.3-0.1-0.6-0.2-0.8-0.4c-11.5-5.9-22-14-31-23.9L990.8,573.7h138.7
			c20.6,0,37.4-16.7,37.4-37.4s-16.7-37.4-37.4-37.4H922.9L692.7,245.7c-0.2-0.2-0.2-0.3-0.3-0.3c0-0.3,0.2-0.8,0.3-0.9
			c0,0,0.1,0,0.5,0h1551.2l-34.6,36.5c-30.5-20-65.5-31.4-101.2-32.5c-49.5-1.6-94.7,16.4-127.2,50.7
			c-32.5,34.3-48.1,80.3-43.8,129.7c0.6,6.4,1.5,12.8,2.7,19.1c-53.9-7.3-108.4,8.9-146.3,48.9c-0.6,0.7-1.2,1.3-1.8,2h-488.6
			c-20.6,0-37.4,16.7-37.4,37.4c0,20.6,16.7,37.4,37.4,37.4h450.1c-5.1,23.3-5.3,47.8-0.7,71.9c-6.4-0.9-12.8-1.4-19.3-1.6
			c-49.5-1.6-94.7,16.4-127.2,50.7c-57.9,61-58.3,157.5-5.9,229.1l-41.3,43.6c-14.2,15-13.6,38.7,1.4,52.9
			c7.2,6.9,16.5,10.3,25.7,10.3c9.9,0,19.8-3.9,27.1-11.7l41.3-43.6c30.5,20,65.5,31.4,101.2,32.5c2,0.1,4,0.1,6,0.1
			c47.2,0,90-17.9,121.2-50.8c32.5-34.3,48.1-80.3,43.8-129.7c-0.6-6.4-1.5-12.8-2.7-19.1c8.3,1.1,16.7,1.7,25,1.7
			c45.4,0,89.3-16.8,121.3-50.6c37.9-40,51.2-95.3,41-148.7c6.4,0.9,12.8,1.4,19.3,1.6c2,0.1,4,0.1,6,0.1c41,0,78.7-13.5,108.3-38.6
			h165.4L1782.3,1265.1z M1848.2,548.3c17.5-18.4,41.6-27.5,67-27.5c29.3,0,60.3,12,85.1,35.5c46.4,44,53.6,111.9,16.1,151.5
			c-37.5,39.6-105.7,36-152.1-8c0,0,0,0,0,0C1817.9,655.9,1810.7,587.9,1848.2,548.3z M1828.9,905.6c-17.6,18.6-42.6,28.2-70.5,27.4
			c-29.6-0.9-58.5-13.5-81.6-35.4c-46.4-44-53.6-111.9-16.1-151.5c16.9-17.8,40.5-27.4,67-27.4c1.2,0,2.4,0,3.5,0.1
			c29.5,0.9,58.5,13.5,81.6,35.4c0,0,0,0,0,0c23.1,21.9,37.2,50.1,39.7,79.6C1854.9,861.5,1846.5,887.1,1828.9,905.6z M2012.1,422.5
			c-2.4-27.8,6-53.3,23.6-71.9c16.9-17.8,40.5-27.4,67-27.4c1.2,0,2.3,0,3.5,0.1c29.6,1,58.5,13.5,81.6,35.4
			c46.4,44,53.6,111.9,16.1,151.5c-17.6,18.6-42.7,28.2-70.5,27.4c-29.6-0.9-58.5-13.5-81.6-35.4
			C2028.7,480.2,2014.6,451.9,2012.1,422.5z"/>
	</g>
</g>
</svg>
