<?xml version="1.0" encoding="utf-8"?>
<!-- Generator: Adobe Illustrator 18.0.0, SVG Export Plug-In . SVG Version: 6.00 Build 0)  -->
<!DOCTYPE svg PUBLIC "-//W3C//DTD SVG 1.1//EN" "http://www.w3.org/Graphics/SVG/1.1/DTD/svg11.dtd">
<svg version="1.1" id="Capa_1" xmlns="http://www.w3.org/2000/svg" xmlns:xlink="http://www.w3.org/1999/xlink" x="0px" y="0px"
	 viewBox="0 0 3401.6 2551.2" enable-background="new 0 0 3401.6 2551.2" xml:space="preserve">
<g>
	<g>
		<path fill="#575757" d="M2441.4,1580.4c-52.2-54.4-115.2-83.5-182-83.5c-66.2,0-129.8,28.5-184.1,82.9l-170.1,169.6
			c-14-7.5-28-14.5-41.5-21.5c-19.4-9.7-37.7-18.8-53.3-28.5c-159.4-101.2-304.2-233.1-443.1-403.8
			c-67.3-85.1-112.5-156.7-145.4-229.4c44.2-40.4,85.1-82.4,124.9-122.8c15.1-15.1,30.2-30.7,45.2-45.8
			c113.1-113.1,113.1-259.5,0-372.6l-147-147c-16.7-16.7-33.9-33.9-50.1-51.2c-32.3-33.4-66.2-67.8-101.2-100.2
			c-52.2-51.7-114.7-79.2-180.4-79.2S784.1,175,730.3,226.7c-0.5,0.5-0.5,0.5-1.1,1.1L546.1,412.5
			c-68.9,68.9-108.2,152.9-116.8,250.4c-12.9,157.2,33.4,303.7,68.9,399.5c87.2,235.3,217.5,453.4,411.9,687.1
			c235.8,281.6,519.6,504,843.7,660.7c123.8,58.7,289.1,128.1,473.8,140c11.3,0.5,23.2,1.1,33.9,1.1c124.4,0,228.8-44.7,310.7-133.5
			c0.5-1.1,1.6-1.6,2.2-2.7c28-33.9,60.3-64.6,94.2-97.5c23.2-22.1,46.8-45.2,70-69.5c53.3-55.5,81.3-120.1,81.3-186.3
			c0-66.8-28.5-130.8-82.9-184.7L2441.4,1580.4z M2634.2,2147.3C2633.7,2147.3,2633.7,2147.9,2634.2,2147.3
			c-21,22.6-42.5,43.1-65.7,65.7c-35,33.4-70.5,68.4-103.9,107.7c-54.4,58.2-118.5,85.6-202.5,85.6c-8.1,0-16.7,0-24.8-0.5
			c-159.9-10.2-308.5-72.7-420-126c-304.8-147.5-572.4-357-794.7-622.4C839,1436.1,716.3,1231.5,635,1011.8
			c-50.1-134.1-68.4-238.5-60.3-337.1c5.4-63,29.6-115.2,74.3-159.9l183.6-183.6c26.4-24.8,54.4-38.2,81.8-38.2
			c33.9,0,61.4,20.5,78.6,37.7c0.5,0.5,1.1,1.1,1.6,1.6c32.8,30.7,64.1,62.5,96.9,96.4c16.7,17.2,33.9,34.5,51.2,52.2l147,147
			c57.1,57.1,57.1,109.8,0,166.9c-15.6,15.6-30.7,31.2-46.3,46.3c-45.2,46.3-88.3,89.4-135.1,131.4c-1.1,1.1-2.2,1.6-2.7,2.7
			c-46.3,46.3-37.7,91.5-28,122.2c0.5,1.6,1.1,3.2,1.6,4.8c38.2,92.6,92.1,179.8,173.9,283.8l0.5,0.5
			c148.6,183.1,305.3,325.8,478.1,435.1c22.1,14,44.7,25.3,66.2,36.1c19.4,9.7,37.7,18.8,53.3,28.5c2.2,1.1,4.3,2.7,6.5,3.8
			c18.3,9.2,35.5,13.5,53.3,13.5c44.7,0,72.7-28,81.8-37.2l184.1-184.1c18.3-18.3,47.4-40.4,81.3-40.4c33.4,0,60.8,21,77.5,39.3
			c0.5,0.5,0.5,0.5,1.1,1.1l296.7,296.7C2689.1,2033.7,2689.1,2090.3,2634.2,2147.3z"/>
		<path fill="#575757" d="M1803.9,606.9c141.1,23.7,269.2,90.5,371.5,192.8c102.3,102.3,168.5,230.5,192.8,371.5
			c5.9,35.5,36.6,60.3,71.6,60.3c4.3,0,8.1-0.5,12.4-1.1c39.8-6.5,66.2-44.2,59.8-84c-29.1-170.7-109.8-326.3-233.1-449.6
			c-123.3-123.3-278.9-204.1-449.6-233.1c-39.8-6.5-77,19.9-84,59.2C1738.2,562.2,1764.1,600.4,1803.9,606.9z"/>
		<path fill="#575757" d="M2973.4,1125.4C2925.5,844.3,2793,588.6,2589.5,385S2130.2,49,1849.1,1.1c-39.3-7-76.5,19.9-83.5,59.2
			c-6.5,39.8,19.9,77,59.8,84c250.9,42.5,479.8,161.5,661.7,343c182,182,300.5,410.8,343,661.7c5.9,35.5,36.6,60.3,71.6,60.3
			c4.3,0,8.1-0.5,12.4-1.1C2953.5,1202.4,2980.4,1164.7,2973.4,1125.4z"/>
	</g>
</g>
</svg>
