<?xml version="1.0" encoding="utf-8"?>
<!-- Generator: Adobe Illustrator 18.0.0, SVG Export Plug-In . SVG Version: 6.00 Build 0)  -->
<!DOCTYPE svg PUBLIC "-//W3C//DTD SVG 1.1//EN" "http://www.w3.org/Graphics/SVG/1.1/DTD/svg11.dtd">
<svg version="1.1" id="Capa_1" xmlns="http://www.w3.org/2000/svg" xmlns:xlink="http://www.w3.org/1999/xlink" x="0px" y="0px"
	 viewBox="0 0 3401.6 2551.2" enable-background="new 0 0 3401.6 2551.2" xml:space="preserve">
<g>
	<g>
		<path fill="#FFFFFF" d="M2975.2,2012.9c5.4,41.4-7.2,77.4-37.8,108l-359.2,356.5c-16.2,18-37.4,33.3-63.5,45.9
			c-26.1,12.6-51.8,20.7-77,24.3c-1.8,0-7.2,0.5-16.2,1.4c-9,0.9-20.7,1.4-35.1,1.4c-34.2,0-89.6-5.9-166.1-17.6
			c-76.5-11.7-170.1-40.5-280.9-86.4c-110.7-45.9-236.3-114.8-376.8-206.6c-140.4-91.8-289.9-217.9-448.3-378.1
			c-126-124.2-230.5-243.1-313.3-356.5c-82.8-113.4-149.4-218.3-199.9-314.6c-50.4-96.3-88.2-183.7-113.4-262
			c-25.2-78.3-42.3-145.8-51.3-202.6c-9-56.7-12.6-101.3-10.8-133.7s2.7-50.4,2.7-54c3.6-25.2,11.7-50.9,24.3-77
			c12.6-26.1,27.9-47.3,45.9-63.5L857.8,38.6c25.2-25.2,54-37.8,86.4-37.8c23.4,0,44.1,6.8,62.1,20.3c18,13.5,33.3,30.2,45.9,50
			l289,548.3c16.2,28.8,20.7,60.3,13.5,94.5s-22.5,63-45.9,86.4l-132.3,132.3c-3.6,3.6-6.8,9.5-9.5,17.6c-2.7,8.1-4.1,14.9-4.1,20.3
			c7.2,37.8,23.4,81,48.6,129.6c21.6,43.2,54.9,95.9,99.9,158c45,62.1,108.9,133.7,191.8,214.7c81,82.8,153,147.2,216.1,193.1
			c63,45.9,115.7,79.7,158,101.3c42.3,21.6,74.7,34.7,97.2,39.1l33.8,6.8c3.6,0,9.5-1.4,17.6-4.1c8.1-2.7,14-5.9,17.6-9.5
			l153.9-156.6c32.4-28.8,70.2-43.2,113.4-43.2c30.6,0,54.9,5.4,72.9,16.2h2.7l521.2,307.9C2945.4,1947.2,2968,1976.9,2975.2,2012.9
			z"/>
	</g>
</g>
</svg>
