<?xml version="1.0" encoding="utf-8"?>
<!-- Generator: Adobe Illustrator 18.0.0, SVG Export Plug-In . SVG Version: 6.00 Build 0)  -->
<!DOCTYPE svg PUBLIC "-//W3C//DTD SVG 1.1//EN" "http://www.w3.org/Graphics/SVG/1.1/DTD/svg11.dtd">
<svg version="1.1" id="Capa_1" xmlns="http://www.w3.org/2000/svg" xmlns:xlink="http://www.w3.org/1999/xlink" x="0px" y="0px"
	 viewBox="0 0 3401.6 2551.2" enable-background="new 0 0 3401.6 2551.2" xml:space="preserve">
<g>
	<g>
		<path fill="#FFFFFF" d="M2887.3,1088.2c-21.6-60.7-89.9-230.1-231.6-401.3c-102-123.2-221-221.4-353.8-292
			c-107.4-57.1-223.8-95.8-347.8-116.2c-10.4-106.4-100.3-189.8-209.4-189.8c-109,0-199,83.4-209.4,189.7
			c-114.5,18.8-222.5,53.3-322.8,103.4c-129.8,64.8-247.1,155.6-348.9,270.1c-32.1,36,23.8,85.7,55.8,49.7
			c178-200.1,398.5-318.7,657.1-353.8c0.2,0,0.4,0,0.6,0c232.9-31.8,479.4,1.6,688.2,112.3c123.9,65.6,235.2,157.2,331,272.3
			c116.1,139.5,181.2,280.7,209.6,352.3H683.5c22.7-57.2,68.8-158.9,145.5-268.3c27.5-39.3-33.3-82.6-61.2-42.9
			c-97.6,139.2-147.6,264.3-165.5,314.6c-51.1,12.6-89.1,58.8-89.1,113.6c0,64.5,52.5,117.1,117.1,117.1h564.4l-326.7,420.2H462.6
			c-20.6,0-37.4,16.7-37.4,37.4c0,0,0,645.5,0,648.4c0,10.9,5,20.9,12.7,27.8c6.6,5.9,15.3,9.6,24.7,9.6c1.5,0,2.9-0.1,4.4-0.3
			l423.6-50.1c18.8-2.2,33-18.2,33-37.1V2236l887.3-219.2c27.3-5,52.2-18,71.9-37.6c0.5-0.5,0.9-0.9,1.4-1.4l452.6-499.2
			c42.9-43.2,51.1-108.1,24.7-159.7h497.9c64.5,0,117.1-52.5,117.1-117.1C2976.4,1147,2938.4,1100.8,2887.3,1088.2z M1864.6,267.4
			c-51.4-4.6-103-6.3-154.6-5c-27,0.7-54,2.3-81,4.6c-5.5,0.5-11,0.9-16.4,1.4c14-60,67.9-104.8,132.1-104.8
			c64.2,0,118.1,44.8,132.1,104.8C1872.8,268.1,1868.7,267.8,1864.6,267.4z M848.8,2341.6l-348.8,41.2v-568.9h348.8V2341.6z
			 M2283.3,1426.3c-0.5,0.5-0.9,0.9-1.4,1.4l-452.5,499c-9.1,8.8-20.4,14.5-32.8,16.7c-0.9,0.1-1.7,0.3-2.5,0.5l-870.6,215v-369.7
			c0,0,352-452.8,352.4-453.3c20.5-26.4,66.2-19.9,87.4,1.1c21.7,21.6,24.8,55.4,7.3,80.4c-3.5,5-195.5,300.1-195.7,300.4
			c-16,24.5,2.4,57.6,31.4,57.6h531.4c9.9,0,19.3-3.9,26.3-10.8c0,0,430.4-427.1,430.9-427.6c24.3-24.2,64.7-24,88.8,0.3
			C2308.1,1362,2307.9,1401.9,2283.3,1426.3z M1441.3,1318.9h217.2l-381.9,379c0,0,151.8-232.5,155.3-237.7
			C1461.7,1417.5,1464.1,1363.2,1441.3,1318.9z M1498,1700.8h-118.2l366.5-363.7c11.8-11.7,27.5-18.2,44.2-18.2
			c23.8,0,46.3,14.1,56.5,35.5L1498,1700.8z M1970.5,1337.1c11.8-11.7,27.5-18.2,44.2-18.2c23.9,0,46.2,14,56.5,35.5l-349.1,346.4
			h-118.2L1970.5,1337.1z M2859.3,1244.2H630.2c-23.3,0-42.3-19-42.3-42.3s19-42.3,42.3-42.3h2229.1c23.3,0,42.3,19,42.3,42.3
			C2901.6,1225.2,2882.6,1244.2,2859.3,1244.2z"/>
	</g>
</g>
</svg>
