<?xml version="1.0" encoding="utf-8"?>
<!-- Generator: Adobe Illustrator 18.0.0, SVG Export Plug-In . SVG Version: 6.00 Build 0)  -->
<!DOCTYPE svg PUBLIC "-//W3C//DTD SVG 1.1//EN" "http://www.w3.org/Graphics/SVG/1.1/DTD/svg11.dtd">
<svg version="1.1" id="Capa_1" xmlns="http://www.w3.org/2000/svg" xmlns:xlink="http://www.w3.org/1999/xlink" x="0px" y="0px"
	 viewBox="0 0 3401.6 2551.2" enable-background="new 0 0 3401.6 2551.2" xml:space="preserve">
<g>
	<path fill="#575757" d="M2236.3,0H1165.2C1062,0,978,84.1,978,187.3v2176.5c0,103.3,84.1,187.3,187.3,187.3h1071
		c103.3,0,187.3-84.1,187.3-187.3V187.3C2423.6,84.1,2339.6,0,2236.3,0z M1063,340.2h1275.6v1615.7H1063V340.2z M1165.2,85h1071
		c56.4,0,102.3,45.9,102.3,102.3v67.8H1063v-67.8C1063,130.9,1108.9,85,1165.2,85z M2236.3,2466.1H1165.2
		c-56.4,0-102.3-45.9-102.3-102.3v-322.9h1275.6v322.9C2338.6,2420.3,2292.7,2466.1,2236.3,2466.1z"/>
	<path fill="#575757" d="M1700.8,2083.5c-93.8,0-170.1,76.3-170.1,170.1s76.3,170.1,170.1,170.1c93.8,0,170.1-76.3,170.1-170.1
		S1794.6,2083.5,1700.8,2083.5z M1700.8,2338.6c-46.9,0-85-38.1-85-85s38.1-85,85-85c46.9,0,85,38.1,85,85
		S1747.7,2338.6,1700.8,2338.6z"/>
	<path fill="#575757" d="M1530.7,212.6h170.1c23.5,0,42.5-19,42.5-42.5s-19-42.5-42.5-42.5h-170.1c-23.5,0-42.5,19-42.5,42.5
		S1507.2,212.6,1530.7,212.6z"/>
	<path fill="#575757" d="M1828.3,212.6h42.5c23.5,0,42.5-19,42.5-42.5s-19-42.5-42.5-42.5h-42.5c-23.5,0-42.5,19-42.5,42.5
		S1804.8,212.6,1828.3,212.6z"/>
	<path fill="#575757" d="M2832.3,194.3c-16.6-16.6-43.5-16.6-60.1,0c-16.6,16.6-16.6,43.5,0,60.1c158.9,158.9,158.9,417.3,0,576.2
		c-16.6,16.6-16.6,43.5,0,60.1c8.3,8.3,19.2,12.5,30.1,12.5s21.8-4.2,30.1-12.5C3024.3,698.8,3024.3,386.3,2832.3,194.3z"/>
	<path fill="#575757" d="M2653.3,291c-16.6-16.6-43.5-16.6-60.1,0c-16.6,16.6-16.6,43.5,0,60.1c52.6,52.6,81.6,122.7,81.6,197.2
		s-29,144.6-81.6,197.2c-16.6,16.6-16.6,43.5,0,60.1c8.3,8.3,19.2,12.5,30.1,12.5c10.9,0,21.8-4.2,30.1-12.5
		c68.7-68.6,106.5-160,106.5-257.3S2722,359.7,2653.3,291z"/>
	<path fill="#575757" d="M629.4,254.4c16.6-16.6,16.6-43.5,0-60.1s-43.5-16.6-60.1,0c-192,192-192,504.5,0,696.5
		c8.3,8.3,19.2,12.5,30.1,12.5s21.8-4.2,30.1-12.5c16.6-16.6,16.6-43.5,0-60.1C470.5,671.8,470.5,413.3,629.4,254.4z"/>
	<path fill="#575757" d="M808.4,279.3c-16.6-16.6-43.5-16.6-60.1,0c-68.7,68.6-106.5,160-106.5,257.3S679.6,725.3,748.3,794
		c8.3,8.3,19.2,12.5,30.1,12.5s21.8-4.2,30.1-12.5c16.6-16.6,16.6-43.5,0-60.1c-52.6-52.6-81.6-122.7-81.6-197.2
		s28.9-144.6,81.6-197.2C825,322.9,825,295.9,808.4,279.3z"/>
</g>
</svg>
