<?xml version="1.0" encoding="utf-8"?>
<!-- Generator: Adobe Illustrator 18.0.0, SVG Export Plug-In . SVG Version: 6.00 Build 0)  -->
<!DOCTYPE svg PUBLIC "-//W3C//DTD SVG 1.1//EN" "http://www.w3.org/Graphics/SVG/1.1/DTD/svg11.dtd">
<svg version="1.1" id="Capa_1" xmlns="http://www.w3.org/2000/svg" xmlns:xlink="http://www.w3.org/1999/xlink" x="0px" y="0px"
	 viewBox="0 0 3401.6 2551.2" enable-background="new 0 0 3401.6 2551.2" xml:space="preserve">
<g>
	<g>
		<path fill="#FFFFFF" d="M2957.2,2379.7c-52.5-41.7-125.9-41.7-178.4,0.1l-77.8,62c-16,12.7-38.4,12.8-54.4,0l-78.4-62.2
			c-52.5-41.7-125.9-41.6-178.4,0.2l-77.7,61.9c-16,12.8-38.4,12.8-54.5,0l-77.7-61.9c-52.5-41.8-125.8-41.9-178.4-0.1l-78.5,62.3
			c-16,12.7-38.3,12.7-54.3,0l-78.5-62.3c-52.5-41.7-125.9-41.6-178.4,0.2l-77.8,62c-16,12.7-38.4,12.8-54.4,0l-78.5-62.3
			c-52.5-41.7-125.8-41.6-178.2,0l-78.4,62.3c-16,12.7-38.4,12.7-54.4,0l-77.8-62c-52.5-41.8-125.9-41.9-178.4-0.2l-78.4,62.3
			c-16,12.7-38.3,12.7-54.3,0l-78.6-62.4c-52.5-41.6-125.7-41.6-178.2,0c-21.5,17.1-25.2,48.4-8.1,70c17.1,21.6,48.4,25.2,70,8.1
			c16-12.7,38.3-12.7,54.3,0l78.6,62.4c52.5,41.6,125.7,41.6,178.2,0l78.4-62.3c16-12.7,38.4-12.7,54.4,0l77.8,62
			c52.5,41.8,125.9,41.9,178.4,0.1l78.4-62.3c16-12.7,38.3-12.7,54.3,0l78.5,62.3c52.6,41.7,125.9,41.7,178.4-0.1l77.8-62
			c16-12.7,38.4-12.8,54.4,0l78.5,62.3c26.2,20.8,57.7,31.2,89.1,31.2c31.4,0,62.9-10.4,89.1-31.2l78.5-62.3
			c16-12.7,38.4-12.7,54.4,0l77.7,61.9c52.6,41.9,126,41.9,178.6,0l77.7-61.9c16-12.7,38.4-12.8,54.4-0.1l78.4,62.2
			c52.6,41.7,125.9,41.6,178.4-0.2l77.8-62c16-12.7,38.4-12.8,54.4,0c21.6,17.1,52.9,13.5,70-8.1
			C2982.3,2428.1,2978.8,2396.8,2957.2,2379.7z"/>
	</g>
</g>
<g>
	<g>
		<path fill="#FFFFFF" d="M2957.2,2056.9c-52.6-41.7-125.9-41.7-178.4,0.1l-77.8,62c-16,12.7-38.4,12.8-54.4,0l-78.4-62.2
			c-52.6-41.7-125.9-41.6-178.4,0.2l-77.7,61.9c-16,12.8-38.4,12.8-54.5,0l-77.7-61.9c-52.5-41.8-125.8-41.9-178.4-0.1l-78.5,62.3
			c-16,12.7-38.3,12.7-54.3,0l-78.5-62.3c-52.6-41.7-125.9-41.6-178.4,0.2l-77.8,62c-16,12.7-38.4,12.8-54.4,0l-78.5-62.3
			c-52.5-41.7-125.8-41.6-178.2,0l-78.4,62.3c-16,12.7-38.4,12.7-54.4,0l-77.8-62c-52.5-41.8-125.8-41.9-178.4-0.2l-78.4,62.3
			c-16,12.7-38.3,12.7-54.3,0l-78.6-62.4c-52.5-41.6-125.7-41.6-178.2,0c-21.6,17.1-25.2,48.4-8.1,70c17.1,21.6,48.4,25.2,70,8.1
			c16-12.7,38.3-12.7,54.3,0l78.6,62.4c52.5,41.6,125.8,41.6,178.2,0l78.4-62.3c16-12.7,38.4-12.7,54.4,0l77.8,62
			c52.5,41.8,125.9,41.9,178.4,0.1l78.4-62.3c16-12.7,38.3-12.7,54.3,0l78.5,62.3c52.6,41.7,125.9,41.7,178.4-0.1l77.8-62
			c16-12.7,38.4-12.8,54.4,0l78.5,62.3c26.2,20.8,57.7,31.2,89.1,31.2c31.4,0,62.9-10.4,89.1-31.2l78.5-62.3
			c16-12.7,38.4-12.7,54.4,0l77.7,61.9c52.6,41.9,126,41.9,178.6,0l77.7-61.9c16-12.7,38.4-12.8,54.4,0l78.4,62.2
			c52.6,41.7,125.9,41.6,178.4-0.2l77.8-62c16-12.8,38.4-12.8,54.4,0c21.5,17.1,52.9,13.5,70-8
			C2982.3,2105.4,2978.7,2074,2957.2,2056.9z"/>
	</g>
</g>
<g>
	<g>
		<path fill="#FFFFFF" d="M2957.2,1734.2c-52.6-41.7-125.9-41.7-178.4,0.1l-77.8,62c-16,12.7-38.4,12.8-54.4,0l-78.4-62.2
			c-52.6-41.7-125.9-41.6-178.4,0.2l-77.7,61.9c-16,12.8-38.4,12.8-54.5,0l-77.7-61.9c-52.5-41.8-125.8-41.9-178.4-0.2l-78.5,62.3
			c-16,12.7-38.3,12.7-54.3,0l-78.5-62.3c-52.5-41.7-125.9-41.6-178.4,0.2l-77.8,62c-16,12.7-38.4,12.8-54.4,0l-78.5-62.3
			c-52.5-41.7-125.8-41.6-178.2,0l-78.4,62.3c-16,12.7-38.4,12.7-54.4,0l-77.8-62c-52.5-41.8-125.9-41.9-178.4-0.2l-78.4,62.3
			c-16,12.7-38.3,12.7-54.3,0l-78.6-62.4c-52.5-41.6-125.7-41.6-178.2,0c-21.5,17.1-25.2,48.4-8.1,70c17.1,21.6,48.4,25.2,70,8.1
			c16-12.7,38.3-12.7,54.3,0l78.6,62.4c52.5,41.6,125.7,41.6,178.2,0l78.4-62.3c16-12.7,38.4-12.7,54.4,0l77.8,62
			c52.5,41.8,125.9,41.9,178.4,0.1l78.4-62.3c16-12.7,38.3-12.7,54.3,0l78.5,62.3c52.6,41.7,125.9,41.7,178.4-0.1l77.8-62
			c16-12.7,38.4-12.8,54.4,0l78.5,62.3c26.2,20.8,57.7,31.2,89.1,31.2c31.4,0,62.9-10.4,89.1-31.2l78.5-62.3
			c16-12.7,38.4-12.7,54.4,0l77.7,61.9c52.6,41.9,126,41.9,178.6,0l77.7-61.9c16-12.7,38.4-12.8,54.4,0l78.4,62.2
			c52.6,41.7,125.9,41.6,178.4-0.2l77.8-62c16-12.7,38.4-12.8,54.4,0c21.6,17.1,52.9,13.5,70-8.1
			C2982.3,1782.6,2978.8,1751.3,2957.2,1734.2z"/>
	</g>
</g>
<g>
	<g>
		<path fill="#FFFFFF" d="M2567.6,0c-225.2,0-408.5,183.2-408.5,408.5V946h-896.6V766.2h535.1c27.5,0,49.8-22.3,49.8-49.8
			c0-27.5-22.3-49.8-49.8-49.8h-535.1V408.5c0-170.3,138.6-308.9,308.9-308.9s308.9,138.6,308.9,308.9v105.6
			c0,27.5,22.3,49.8,49.8,49.8c27.5,0,49.8-22.3,49.8-49.8V408.5C1979.8,183.2,1796.5,0,1571.3,0s-408.5,183.2-408.5,408.5V812
			H656.3c-27.5,0-49.8,22.3-49.8,49.8c0,27.5,22.3,49.8,49.8,49.8h506.5v727.3c0,27.5,22.3,49.8,49.8,49.8s49.8-22.3,49.8-49.8
			v-35.9h896.6v35.9c0,27.5,22.3,49.8,49.8,49.8c27.5,0,49.8-22.3,49.8-49.8V408.5c0-170.3,138.6-308.9,308.9-308.9
			c170.3,0,308.9,138.6,308.9,308.9v105.6c0,27.5,22.3,49.8,49.8,49.8c27.5,0,49.8-22.3,49.8-49.8V408.5
			C2976,183.2,2792.8,0,2567.6,0z M2159.1,1503.4h-896.6v-178.3h896.6V1503.4z M2159.1,1225.4h-896.6v-179.8h896.6V1225.4z"/>
	</g>
</g>
<g>
	<g>
		<path fill="#FFFFFF" d="M2029.9,681.1c-9.3-9.3-22.1-14.6-35.2-14.6s-26,5.3-35.2,14.6c-9.3,9.3-14.6,22.1-14.6,35.2
			c0,13.1,5.3,26,14.6,35.2c9.3,9.3,22.1,14.6,35.2,14.6c13.1,0,26-5.3,35.2-14.6c9.3-9.3,14.6-22.1,14.6-35.2
			S2039.2,690.4,2029.9,681.1z"/>
	</g>
</g>
<g>
	<g>
		<path fill="#FFFFFF" d="M510.6,826.6c-9.3-9.3-22.1-14.6-35.2-14.6c-13.1,0-26,5.3-35.2,14.6c-9.3,9.3-14.6,22.1-14.6,35.2
			s5.3,26,14.6,35.2c9.3,9.3,22.1,14.6,35.2,14.6s26-5.3,35.2-14.6c9.3-9.3,14.6-22.1,14.6-35.2S519.8,835.8,510.6,826.6z"/>
	</g>
</g>
<g>
	<g>
		<path fill="#FFFFFF" d="M2926.2,812h-505.6c-27.5,0-49.8,22.3-49.8,49.8c0,27.5,22.3,49.8,49.8,49.8h505.6
			c27.5,0,49.8-22.3,49.8-49.8C2976,834.3,2953.7,812,2926.2,812z"/>
	</g>
</g>
</svg>
