<?xml version="1.0" encoding="utf-8"?>
<!-- Generator: Adobe Illustrator 18.0.0, SVG Export Plug-In . SVG Version: 6.00 Build 0)  -->
<!DOCTYPE svg PUBLIC "-//W3C//DTD SVG 1.1//EN" "http://www.w3.org/Graphics/SVG/1.1/DTD/svg11.dtd">
<svg version="1.1" id="Capa_1" xmlns="http://www.w3.org/2000/svg" xmlns:xlink="http://www.w3.org/1999/xlink" x="0px" y="0px"
	 viewBox="1988.6 393.7 33.9 16" enable-background="new 1988.6 393.7 33.9 16" xml:space="preserve">
<g>
	<g>
		<path fill="#FFFFFF" d="M1997.5,395.8h-3.2l-2.1,10.6h-2.5l2.1-10.6h-3.2l0.4-1.9h8.9L1997.5,395.8z"/>
		<path fill="#FFFFFF" d="M2004.4,400.9h-4.8l-0.7,3.6h5.6l-0.4,1.9h-8.1l2.5-12.5h8l-0.4,1.9h-5.6l-0.6,3.2h4.8L2004.4,400.9z"/>
		<path fill="#FFFFFF" d="M2008.3,401.4l-1,5h-2.5l2.5-12.5h4.5c1.3,0,2.2,0.3,2.9,1c0.7,0.7,0.9,1.6,0.7,2.7
			c-0.1,0.7-0.4,1.3-0.8,1.7c-0.4,0.5-0.9,0.8-1.6,1.1c0.6,0.2,1,0.6,1.3,1.1c0.2,0.5,0.3,1.1,0.1,1.8l-0.2,0.9
			c-0.1,0.4-0.1,0.7-0.1,1.1c0,0.4,0.1,0.7,0.3,0.8l0,0.2h-2.6c-0.2-0.2-0.3-0.5-0.2-0.9c0-0.4,0.1-0.8,0.2-1.2l0.2-0.9
			c0.1-0.7,0.1-1.2-0.1-1.5c-0.2-0.3-0.6-0.5-1.2-0.5H2008.3z M2008.7,399.5h1.9c0.6,0,1.1-0.2,1.4-0.5c0.4-0.3,0.6-0.7,0.8-1.3
			c0.1-0.6,0.1-1.1-0.2-1.4c-0.2-0.3-0.7-0.5-1.3-0.5h-2L2008.7,399.5z"/>
	</g>
	<g>
		<polygon fill="#FFFFFF" points="2022.3,393.7 2019.2,393.7 2016.8,409.8 2019.9,409.8 		"/>
		<polygon fill="#FFFFFF" points="2012.5,406.4 2022.3,393.7 2019.3,393.7 2011.6,404.1 2011.2,406.4 		"/>
		<polygon fill="#FFFFFF" points="2011.2,406.4 2022.1,406.4 2022.5,404.1 2011.6,404.1 		"/>
	</g>
</g>
</svg>
