<?xml version="1.0" encoding="utf-8"?>
<!-- Generator: Adobe Illustrator 18.0.0, SVG Export Plug-In . SVG Version: 6.00 Build 0)  -->
<!DOCTYPE svg PUBLIC "-//W3C//DTD SVG 1.1//EN" "http://www.w3.org/Graphics/SVG/1.1/DTD/svg11.dtd">
<svg version="1.1" id="Capa_1" xmlns="http://www.w3.org/2000/svg" xmlns:xlink="http://www.w3.org/1999/xlink" x="0px" y="0px"
	 viewBox="0 0 28 28" enable-background="new 0 0 28 28" xml:space="preserve">
<g>
	<g>
		<g id="post-twitter_9_">
			<path fill="#FFFFFF" d="M25.2,0H2.8C1.3,0,0,1.3,0,2.8v22.4C0,26.7,1.3,28,2.8,28h22.4c1.5,0,2.8-1.3,2.8-2.8V2.8
				C28,1.3,26.7,0,25.2,0z M22,10.2c-0.1,6.4-4.2,10.9-10.4,11.2c-2.5,0.1-4.3-0.7-6-1.7c1.8,0.3,4.2-0.4,5.5-1.5
				c-1.8-0.1-2.9-1.1-3.5-2.7c0.6,0.1,1.1,0,1.5,0C7.4,15,6.3,14,6.2,11.8c0.4,0.3,1,0.4,1.5,0.4c-1.3-0.7-2.1-3.4-1.1-5
				c1.8,2,4.1,3.6,7.7,3.9c-1-3.9,4.3-6,6.4-3.4c1-0.1,1.7-0.6,2.4-0.8c-0.3,1-0.8,1.5-1.5,2.1c0.7-0.1,1.4-0.3,2-0.6
				C23.4,9.1,22.7,9.7,22,10.2z"/>
		</g>
	</g>
</g>
</svg>
