<?xml version="1.0" encoding="utf-8"?>
<!-- Generator: Adobe Illustrator 18.0.0, SVG Export Plug-In . SVG Version: 6.00 Build 0)  -->
<!DOCTYPE svg PUBLIC "-//W3C//DTD SVG 1.1//EN" "http://www.w3.org/Graphics/SVG/1.1/DTD/svg11.dtd">
<svg version="1.1" id="Capa_1" xmlns="http://www.w3.org/2000/svg" xmlns:xlink="http://www.w3.org/1999/xlink" x="0px" y="0px"
	 viewBox="0 0 510 510" enable-background="new 0 0 510 510" xml:space="preserve">
<g>
	<g>
		<g id="post-twitter_8_">
			<path fill="#50AAF0" d="M457.3,2.3H53.1C25.3,2.3,2.6,25,2.6,52.8V457c0,27.8,22.7,50.5,50.5,50.5h404.2
				c27.8,0,50.5-22.7,50.5-50.5V52.8C507.8,25,485.1,2.3,457.3,2.3z M399.2,186.7c-2.5,116.2-75.8,197-186.9,202.1
				c-45.5,2.5-78.3-12.6-108.6-30.3c32.8,5.1,75.8-7.6,98.5-27.8c-32.8-2.5-53-20.2-63.2-48c10.1,2.5,20.2,0,27.8,0
				c-30.3-10.1-50.5-27.8-53-68.2c7.6,5.1,17.7,7.6,27.8,7.6c-22.7-12.6-37.9-60.6-20.2-90.9c32.8,35.4,73.3,65.7,138.9,70.7
				c-17.7-70.7,78.3-108.6,116.2-60.6c17.7-2.5,30.3-10.1,42.9-15.2c-5.1,17.7-15.2,27.8-27.8,37.9c12.6-2.5,25.3-5.1,35.4-10.1
				C424.4,166.5,411.8,176.6,399.2,186.7z"/>
		</g>
	</g>
</g>
</svg>
