<?xml version="1.0" encoding="utf-8"?>
<!-- Generator: Adobe Illustrator 18.0.0, SVG Export Plug-In . SVG Version: 6.00 Build 0)  -->
<!DOCTYPE svg PUBLIC "-//W3C//DTD SVG 1.1//EN" "http://www.w3.org/Graphics/SVG/1.1/DTD/svg11.dtd">
<svg version="1.1" id="Capa_1" xmlns="http://www.w3.org/2000/svg" xmlns:xlink="http://www.w3.org/1999/xlink" x="0px" y="0px"
	 viewBox="0 0 28 28" enable-background="new 0 0 28 28" xml:space="preserve">
<g>
	<path id="WhatsApp" fill="#FFFFFF" d="M28,13.6c0,7.5-6.2,13.6-13.7,13.6c-2.4,0-4.7-0.6-6.6-1.7L0,28l2.5-7.3c-1.3-2.1-2-4.5-2-7
		C0.5,6.1,6.7,0,14.3,0C21.8,0,28,6.1,28,13.6z M14.3,2.2C7.9,2.2,2.7,7.3,2.7,13.6c0,2.5,0.8,4.8,2.2,6.7l-1.4,4.3l4.4-1.4
		c1.8,1.2,4,1.9,6.4,1.9c6.4,0,11.6-5.1,11.6-11.5S20.6,2.2,14.3,2.2z M21.2,16.8c-0.1-0.1-0.3-0.2-0.6-0.4c-0.3-0.2-2-1-2.3-1.1
		c-0.3-0.1-0.5-0.2-0.8,0.2c-0.2,0.3-0.9,1.1-1.1,1.3C16.2,17,16,17,15.7,16.9c-0.3-0.2-1.4-0.5-2.7-1.7c-1-0.9-1.7-2-1.9-2.3
		c-0.2-0.3,0-0.5,0.1-0.7c0.2-0.1,0.3-0.4,0.5-0.6c0.2-0.2,0.2-0.3,0.3-0.6c0.1-0.2,0.1-0.4,0-0.6C12,10.3,11.3,8.7,11,8
		c-0.3-0.7-0.6-0.6-0.8-0.6c-0.2,0-0.4,0-0.6,0C9.4,7.4,9,7.5,8.7,7.8C8.4,8.2,7.5,9,7.5,10.6c0,1.6,1.2,3.2,1.4,3.5
		c0.2,0.2,2.3,3.7,5.8,5c3.4,1.3,3.4,0.9,4,0.8c0.6-0.1,2-0.8,2.3-1.6C21.3,17.6,21.3,16.9,21.2,16.8z"/>
</g>
</svg>
