<?xml version="1.0" encoding="utf-8"?>
<!-- Generator: Adobe Illustrator 18.0.0, SVG Export Plug-In . SVG Version: 6.00 Build 0)  -->
<!DOCTYPE svg PUBLIC "-//W3C//DTD SVG 1.1//EN" "http://www.w3.org/Graphics/SVG/1.1/DTD/svg11.dtd">
<svg version="1.1" id="Capa_1" xmlns="http://www.w3.org/2000/svg" xmlns:xlink="http://www.w3.org/1999/xlink" x="0px" y="0px"
	 viewBox="0 0 3401.6 2551.2" enable-background="new 0 0 3401.6 2551.2" xml:space="preserve">
<g>
	<path fill="#FFFFFF" d="M2962.8,888.5c-336.5-336.6-784.8-521.9-1262-521.9s-925.4,185.3-1262,521.9c-18.2,18.2-18.2,47.5,0,65.7
		c18.2,18.2,47.5,18.2,65.7,0c319-319.1,743.9-494.7,1196.3-494.7S2578,635.1,2897.1,954.2c9.1,9.1,21,13.6,32.8,13.6
		s23.8-4.6,32.8-13.6C2980.9,936,2980.9,906.6,2962.8,888.5z"/>
	<path fill="#FFFFFF" d="M711.9,1161.6c-18.2,18.2-18.2,47.5,0,65.7c9.1,9.1,21,13.6,32.8,13.6c11.9,0,23.8-4.6,32.8-13.6
		c509-509,1337.2-509,1846.3,0c18.2,18.2,47.5,18.2,65.7,0s18.2-47.5,0-65.7C2144.4,616.4,1257.2,616.3,711.9,1161.6z"/>
	<path fill="#FFFFFF" d="M1700.8,1138.7c-270.6,0-524.8,105.1-715.7,296c-18.2,18.2-18.2,47.5,0,65.7c18.2,18.2,47.5,18.2,65.7,0
		c173.4-173.3,404.2-268.8,650-268.8s476.7,95.5,650,268.8c9.1,9.1,21,13.6,32.8,13.6s23.8-4.6,32.8-13.6
		c18.2-18.2,18.2-47.5,0-65.7C2225.6,1243.9,1971.4,1138.7,1700.8,1138.7z"/>
	<path fill="#FFFFFF" d="M1700.8,1575.8c-167.8,0-304.4,136.6-304.4,304.4s136.6,304.4,304.4,304.4c167.9,0,304.4-136.6,304.4-304.4
		S1868.7,1575.8,1700.8,1575.8z M1700.8,2091.7c-116.6,0-211.5-94.9-211.5-211.5s94.9-211.5,211.5-211.5
		c116.6,0,211.5,94.9,211.5,211.5C1912.3,1996.8,1817.4,2091.7,1700.8,2091.7z"/>
</g>
</svg>
