<?xml version="1.0" encoding="iso-8859-1"?>
<!-- Generator: Adobe Illustrator 19.0.0, SVG Export Plug-In . SVG Version: 6.00 Build 0)  -->
<svg xmlns="http://www.w3.org/2000/svg" xmlns:xlink="http://www.w3.org/1999/xlink" version="1.1" id="Capa_1" x="0px" y="0px" viewBox="0 0 512 512" style="enable-background:new 0 0 512 512;" xml:space="preserve" width="512px" height="512px">
<g>
	<g>
		<g>
			<path d="M469.333,64h-42.667c-2.263-0.001-4.434,0.898-6.035,2.499c-1.6,1.6-2.499,3.771-2.499,6.035     c0,14.138-11.462,25.6-25.6,25.6c-14.138,0-25.6-11.462-25.6-25.6c0.001-2.263-0.898-4.434-2.499-6.035     c-1.6-1.6-3.771-2.499-6.035-2.499H153.6c-2.263-0.001-4.434,0.898-6.035,2.499c-1.6,1.6-2.499,3.771-2.499,6.035     c0,14.138-11.461,25.6-25.6,25.6s-25.6-11.462-25.6-25.6c0.001-2.263-0.898-4.434-2.499-6.035c-1.6-1.6-3.771-2.499-6.035-2.499     H42.667C19.114,64.028,0.028,83.114,0,106.667V448c0.028,23.553,19.114,42.639,42.667,42.667h426.667     C492.886,490.639,511.972,471.553,512,448V106.667C511.972,83.114,492.886,64.028,469.333,64z M494.933,174.933H460.8     c-4.713,0-8.533,3.82-8.533,8.533S456.087,192,460.8,192h34.133v256c-0.015,14.132-11.468,25.585-25.6,25.6H42.667     c-14.132-0.015-25.585-11.468-25.6-25.6V192H409.6c4.713,0,8.533-3.82,8.533-8.533s-3.82-8.533-8.533-8.533H17.067v-68.267     c0.015-14.132,11.468-25.585,25.6-25.6h34.992c4.057,19.866,21.533,34.133,41.808,34.133s37.751-14.268,41.808-34.133h189.45     c4.057,19.866,21.533,34.133,41.808,34.133c20.276,0,37.751-14.268,41.808-34.133h34.992c14.132,0.015,25.585,11.468,25.6,25.6     V174.933z" fill="#a8a8a8"/>
			<path d="M119.467,81.067c4.713,0,8.533-3.82,8.533-8.533V29.867c0-4.713-3.82-8.533-8.533-8.533s-8.533,3.82-8.533,8.533v42.667     C110.933,77.246,114.754,81.067,119.467,81.067z" fill="#a8a8a8"/>
			<path d="M392.533,81.067c4.713,0,8.533-3.82,8.533-8.533V29.867c0-4.713-3.821-8.533-8.533-8.533     c-4.713,0-8.533,3.82-8.533,8.533v42.667C384,77.246,387.821,81.067,392.533,81.067z" fill="#a8a8a8"/>
			<path d="M136.533,217.6H68.267c-14.132,0.015-25.585,11.468-25.6,25.6v51.2c0.015,14.132,11.468,25.585,25.6,25.6h68.267     c14.132-0.015,25.585-11.468,25.6-25.6v-51.2C162.118,229.068,150.665,217.615,136.533,217.6z M145.067,294.4     c-0.005,4.711-3.822,8.529-8.533,8.533H68.267c-4.711-0.005-8.529-3.822-8.533-8.533v-51.2c0.005-4.711,3.822-8.529,8.533-8.533     h68.267c4.711,0.005,8.529,3.822,8.533,8.533V294.4z" fill="#a8a8a8"/>
			<path d="M290.133,217.6h-68.267c-14.132,0.015-25.585,11.468-25.6,25.6v51.2c0.015,14.132,11.468,25.585,25.6,25.6h68.267     c14.132-0.015,25.585-11.468,25.6-25.6v-51.2C315.718,229.068,304.265,217.615,290.133,217.6z M298.667,294.4     c-0.005,4.711-3.822,8.529-8.533,8.533h-68.267c-4.711-0.005-8.529-3.822-8.533-8.533v-51.2c0.005-4.711,3.822-8.529,8.533-8.533     h68.267c4.711,0.005,8.529,3.822,8.533,8.533V294.4z" fill="#a8a8a8"/>
			<path d="M375.467,217.6c-14.132,0.015-25.585,11.468-25.6,25.6v51.2c0.015,14.132,11.468,25.585,25.6,25.6h68.267     c14.132-0.015,25.585-11.468,25.6-25.6v-51.2c-0.015-14.132-11.468-25.585-25.6-25.6H375.467z M452.267,243.2v51.2     c-0.005,4.711-3.822,8.529-8.533,8.533h-68.267c-4.711-0.005-8.529-3.822-8.533-8.533v-51.2c0.005-4.711,3.822-8.529,8.533-8.533     h68.267C448.444,234.671,452.262,238.489,452.267,243.2z" fill="#a8a8a8"/>
			<path d="M136.533,345.6H68.267c-14.132,0.015-25.585,11.468-25.6,25.6v51.2c0.015,14.132,11.468,25.585,25.6,25.6h68.267     c14.132-0.015,25.585-11.468,25.6-25.6v-51.2C162.118,357.068,150.665,345.615,136.533,345.6z M145.067,422.4     c-0.005,4.711-3.822,8.529-8.533,8.533H68.267c-4.711-0.005-8.529-3.822-8.533-8.533v-51.2c0.005-4.711,3.822-8.529,8.533-8.533     h68.267c4.711,0.005,8.529,3.822,8.533,8.533V422.4z" fill="#a8a8a8"/>
			<path d="M290.133,345.6h-68.267c-14.132,0.015-25.585,11.468-25.6,25.6v51.2c0.015,14.132,11.468,25.585,25.6,25.6h68.267     c14.132-0.015,25.585-11.468,25.6-25.6v-51.2C315.718,357.068,304.265,345.615,290.133,345.6z M298.667,422.4     c-0.005,4.711-3.822,8.529-8.533,8.533h-68.267c-4.711-0.005-8.529-3.822-8.533-8.533v-51.2c0.005-4.711,3.822-8.529,8.533-8.533     h68.267c4.711,0.005,8.529,3.822,8.533,8.533V422.4z" fill="#a8a8a8"/>
			<path d="M443.733,345.6h-68.267c-14.132,0.015-25.585,11.468-25.6,25.6v51.2c0.015,14.132,11.468,25.585,25.6,25.6h68.267     c14.132-0.015,25.585-11.468,25.6-25.6v-51.2C469.318,357.068,457.865,345.615,443.733,345.6z M452.267,422.4     c-0.005,4.711-3.822,8.529-8.533,8.533h-68.267c-4.711-0.005-8.529-3.822-8.533-8.533v-51.2c0.005-4.711,3.822-8.529,8.533-8.533     h68.267c4.711,0.005,8.529,3.822,8.533,8.533V422.4z" fill="#a8a8a8"/>
		</g>
	</g>
</g>
<g>
</g>
<g>
</g>
<g>
</g>
<g>
</g>
<g>
</g>
<g>
</g>
<g>
</g>
<g>
</g>
<g>
</g>
<g>
</g>
<g>
</g>
<g>
</g>
<g>
</g>
<g>
</g>
<g>
</g>
</svg>
