<?xml version="1.0" encoding="utf-8"?>
<!-- Generator: Adobe Illustrator 16.0.0, SVG Export Plug-In . SVG Version: 6.00 Build 0)  -->
<!DOCTYPE svg PUBLIC "-//W3C//DTD SVG 1.1//EN" "http://www.w3.org/Graphics/SVG/1.1/DTD/svg11.dtd">
<svg version="1.1" id="Capa_1" xmlns="http://www.w3.org/2000/svg" xmlns:xlink="http://www.w3.org/1999/xlink" x="0px" y="0px"
	 width="799.939px" height="450.141px" viewBox="0 0 799.939 450.141" enable-background="new 0 0 799.939 450.141"
	 xml:space="preserve">
<path fill="#FF0000" d="M338.709,295.932c-2.195,2.195-6.124,1.826-8.774-0.825l0,0c-2.651-2.651-3.021-6.58-0.826-8.775
	l132.122-132.122c2.195-2.195,6.124-1.826,8.775,0.825l0,0c2.651,2.651,3.021,6.58,0.825,8.775L338.709,295.932z"/>
<path fill="#FF0000" d="M470.831,286.331c2.195,2.195,1.826,6.124-0.825,8.775l0,0c-2.651,2.651-6.579,3.021-8.774,0.825
	L329.109,163.81c-2.195-2.196-1.826-6.125,0.825-8.776l0,0c2.651-2.651,6.58-3.02,8.775-0.825L470.831,286.331z"/>
</svg>
