<?xml version="1.0" encoding="utf-8"?>
<!-- Generator: Adobe Illustrator 21.1.0, SVG Export Plug-In . SVG Version: 6.00 Build 0)  -->
<svg version="1.1" id="Capa_1" xmlns="http://www.w3.org/2000/svg" xmlns:xlink="http://www.w3.org/1999/xlink" x="0px" y="0px"
	 viewBox="0 0 336 337" style="enable-background:new 0 0 336 337;" xml:space="preserve">
<style type="text/css">
	.st0{fill:#5799D7;}
	.st1{fill:#FFFFFF;}
	.st2{fill:#F4D853;}
	.st3{fill:#B8012B;}
	.st4{fill:#2F53AF;}
	.st5{fill:#CD3232;}
	.st6{fill:#63A9E4;}
	.st7{fill:#F3D951;}
	.st8{fill:#6AB96C;}
	.st9{fill:#4F5A77;}
	.st10{fill:#E8E8E8;}
</style>
<g>
	<g>
		<g>
			<path class="st0" d="M-909.6,291.7c3.2-1.2,4.8-4.8,3.5-8s-4.8-4.8-8-3.5c-40.9,15.9-86.7,13.4-125.6-6.7
				c-74.9-38.8-104.3-131.2-65.5-206.1c38.8-74.9,131.2-104.3,206.1-65.5s104.3,131.2,65.5,206.1c-12.4,23.9-30.8,44.1-53.3,58.5
				c-2.9,1.8-3.7,5.7-1.9,8.6c1.8,2.9,5.7,3.7,8.6,1.9c24.4-15.6,44.3-37.4,57.6-63.2c41.9-81,10.1-180.9-70.8-222.8
				s-180.9-10.1-222.8,70.8s-10.1,180.9,70.8,222.8C-1003.4,306.2-953.9,308.9-909.6,291.7z"/>
		</g>
	</g>
	<g>
		<path class="st0" d="M-969.6,62.9c10.3,0,20.3,1.6,29.8,4.9c9.5,3.3,17.9,8.2,25.3,14.9c7.3,6.6,13.2,15,17.6,25
			c4.4,10.1,6.6,21.8,6.6,35.2c0,2-0.1,4.5-0.3,7.8c-0.2,3.2-0.7,6.6-1.4,10.3c-0.7,3.6-1.8,7.3-3.1,11.1c-1.4,3.8-3.3,7.2-5.8,10.3
			c-2.4,3.1-5.5,5.6-9.2,7.4s-8.1,2.8-13.3,2.8c-3.8,0-7-0.5-9.5-1.6c-2.6-1-4.6-2.3-6.2-3.9c-1.5-1.5-2.7-3.3-3.5-5.2
			c-0.8-2-1.3-3.8-1.6-5.7c-4.5,4.5-9.8,7.9-16,10.3c-6.2,2.4-12.8,3.6-19.6,3.6c-10.5,0-18.5-2.8-24-8.3
			c-5.5-5.5-8.3-12.7-8.3-21.5c0-5.9,1.2-10.8,3.5-14.9c2.3-4.1,5.3-7.3,8.9-9.7c3.6-2.4,7.8-4.2,12.5-5.2c4.7-1,9.5-1.6,14.4-1.6
			c5.4,0,10.1,0.5,13.9,1.6c3.8,1,6.7,2,8.7,2.8c0-3.4-0.4-6.4-1-9.2c-0.7-2.8-1.9-5.2-3.7-7.1c-1.7-2-4.1-3.5-7.1-4.6
			c-3-1.1-6.8-1.7-11.4-1.7c-5.9,0-11.1,0.8-15.6,2.4c-4.5,1.6-8.4,3.8-11.6,6.6l-5.9-17.4c10.3-7,22.5-10.5,36.5-10.5
			c9.5,0,16.9,1.4,22.2,4.3c5.3,2.9,9.3,6.5,11.8,10.8c2.6,4.3,4.2,9.1,4.7,14.4c0.6,5.2,0.8,10.2,0.8,14.8v17.2
			c0,3.1,0.1,6.1,0.2,9.1c0.1,3,0.6,5.7,1.3,8c0.7,2.3,1.7,4.2,3.1,5.7c1.4,1.5,3.3,2.2,5.7,2.2c3.5,0,6.4-1.4,8.6-4.1
			c2.2-2.7,3.9-6,5-9.9c1.1-3.8,1.9-7.8,2.3-11.9c0.4-4.1,0.6-7.5,0.6-10.2c0-9.5-1.6-18.3-4.7-26.4c-3.1-8.1-7.7-15.1-13.5-21.1
			c-5.9-5.9-12.9-10.6-21.2-13.9c-8.2-3.4-17.4-5-27.5-5c-9.9,0-18.9,1.6-27,4.9c-8.1,3.3-15,7.8-20.8,13.6
			c-5.7,5.8-10.2,12.7-13.3,20.8c-3.1,8-4.7,16.8-4.7,26.3c0,9.1,1.5,17.6,4.4,25.6c2.9,8,7.1,15,12.6,21c5.5,6,12.1,10.7,19.8,14.1
			c7.8,3.4,16.5,5.1,26.3,5.1c7,0,12.9-0.8,17.7-2.3c4.8-1.5,9.9-3.4,15.2-5.7l3.8,12.4c-5.9,2.8-11.9,4.9-18.2,6.3
			c-6.3,1.4-12.6,2.1-18.9,2.1c-10.5,0-20.3-1.9-29.6-5.7c-9.2-3.8-17.3-9.1-24.2-15.9c-6.9-6.8-12.4-15.1-16.3-24.8
			c-4-9.7-6-20.6-6-32.6c0-12.6,2.2-23.7,6.6-33.4c4.4-9.7,10.3-17.9,17.7-24.4c7.4-6.6,15.9-11.6,25.6-15
			C-990.3,64.6-980.2,62.9-969.6,62.9z M-960.2,169.8c2.9-1.4,5.3-3.2,7-5.4c1.7-2.2,2.6-4.7,2.6-7.5v-8.4c-2-0.7-5-1.5-9.1-2.5
			c-4.1-1-8.5-1.5-13.1-1.5c-6.3,0-11.1,1.2-14.6,3.7c-3.4,2.4-5.1,6.4-5.1,11.8c0,4.5,1.3,7.9,3.8,10.3c2.5,2.4,6.2,3.6,11.1,3.6
			c2.4,0,5.2-0.3,8.5-0.9C-965.8,172.2-962.8,171.2-960.2,169.8z"/>
	</g>
</g>
<g>
	<g>
		<path class="st0" d="M-984.8,178v12.5h-56V178h22.2v-60.8c-0.9,1.2-2.4,2.6-4.4,4c-2,1.4-4.2,2.7-6.6,3.9c-2.4,1.2-5,2.2-7.6,3
			c-2.6,0.8-4.9,1.2-6.9,1.2v-13.1c2.3,0,4.8-0.6,7.6-1.9c2.8-1.3,5.5-2.8,8-4.5c2.5-1.7,4.7-3.4,6.6-5c1.8-1.6,2.9-2.7,3.2-3.4h14
			V178H-984.8z"/>
		<path class="st0" d="M-895.4,159.2c0,5-1.1,9.5-3.2,13.5c-2.1,4-5,7.4-8.6,10.2c-3.6,2.8-7.7,5-12.5,6.6
			c-4.7,1.6-9.7,2.3-15.1,2.3c-5.5,0-10.6-0.9-15.4-2.6c-4.7-1.7-8.8-4.1-12.2-7c-3.4-3-6.1-6.5-8.1-10.5c-2-4.1-3-8.4-3-13.1
			c0-3.4,0.6-6.6,1.9-9.5c1.2-2.9,2.8-5.5,4.8-7.8c1.9-2.3,4.1-4.3,6.6-6c2.5-1.7,5-3,7.5-4c-2.3-0.9-4.5-2.2-6.6-3.7
			c-2.1-1.5-3.9-3.2-5.5-5.1c-1.6-1.9-2.8-4-3.7-6.3c-0.9-2.3-1.3-4.7-1.3-7.3c0-4.7,1.1-8.8,3.2-12.4c2.1-3.6,4.9-6.6,8.3-9.1
			c3.4-2.5,7.1-4.4,11.3-5.6c4.2-1.2,8.3-1.9,12.5-1.9c4.2,0,8.3,0.6,12.6,1.9c4.2,1.2,8,3.1,11.4,5.5c3.4,2.4,6.1,5.5,8.3,9
			c2.1,3.6,3.2,7.7,3.2,12.4c0,5.2-1.7,9.8-5.1,13.7c-3.4,4-7.5,6.9-12.2,8.9c2.8,1.1,5.5,2.6,8,4.4c2.5,1.8,4.8,3.8,6.6,6.2
			c1.9,2.3,3.4,5,4.5,7.9C-895.9,152.6-895.4,155.7-895.4,159.2z M-909.3,158.2c0-3.3-0.8-6.3-2.3-9c-1.5-2.7-3.5-4.9-5.9-6.7
			c-2.4-1.8-5.1-3.2-8.1-4.1c-3-0.9-6-1.4-9-1.4c-3.1,0-6.2,0.5-9.1,1.5c-3,1-5.6,2.4-8,4.3c-2.3,1.9-4.2,4.1-5.6,6.8
			c-1.4,2.7-2.1,5.6-2.1,8.8c0,3.3,0.8,6.3,2.3,8.9c1.5,2.6,3.5,4.8,5.9,6.6c2.4,1.8,5.1,3.1,8,4.1c3,1,6,1.5,9,1.5
			c3.1,0,6.2-0.5,9.1-1.6c3-1,5.6-2.5,8-4.4c2.3-1.9,4.2-4.1,5.7-6.7C-910,164.2-909.3,161.3-909.3,158.2z M-955.7,109.2
			c0,2.8,0.6,5.3,1.9,7.4c1.3,2.1,3,3.9,5.1,5.4c2.1,1.5,4.4,2.5,6.9,3.3c2.5,0.7,5,1.1,7.5,1.1c2.5,0,5-0.4,7.5-1.2
			c2.5-0.8,4.8-1.9,6.9-3.4c2.1-1.5,3.8-3.3,5.1-5.5c1.3-2.2,2-4.7,2-7.5c0-2.6-0.6-4.9-1.8-7c-1.2-2.1-2.8-3.8-4.8-5.3
			c-2-1.5-4.3-2.6-6.9-3.4c-2.6-0.8-5.3-1.2-8.1-1.2c-2.8,0-5.5,0.4-8,1.2c-2.5,0.8-4.8,1.9-6.7,3.4c-1.9,1.5-3.5,3.3-4.7,5.5
			C-955.1,104.3-955.7,106.6-955.7,109.2z"/>
	</g>
	<g>
		<g>
			<path class="st0" d="M-909.6,295.5c3.2-1.2,4.8-4.8,3.5-8s-4.8-4.8-8-3.5c-40.9,15.9-86.7,13.4-125.6-6.7
				c-74.9-38.8-104.3-131.2-65.5-206.1c38.8-74.9,131.2-104.3,206.1-65.5s104.3,131.2,65.5,206.1c-12.4,23.9-30.8,44.1-53.3,58.5
				c-2.9,1.8-3.7,5.7-1.9,8.6c1.8,2.9,5.7,3.7,8.6,1.9c24.4-15.6,44.3-37.4,57.6-63.2c41.9-81,10.1-180.9-70.8-222.8
				s-180.9-10.1-222.8,70.8s-10.1,180.9,70.8,222.8C-1003.4,310-953.9,312.6-909.6,295.5z"/>
		</g>
	</g>
	<g>
		<circle class="st0" cx="-878.6" cy="14.5" r="45.9"/>
		<g>
			<path class="st1" d="M-854.5,11.4v11h-18v19.5h-12.2V22.4h-18v-11h18V-8.1h12.2v19.5H-854.5z"/>
		</g>
	</g>
</g>
<g>
	<path class="st2" d="M-0.2,167.6C-0.2,75,74.9-0.1,167.5-0.1S335.3,75,335.3,167.6l-167.7,14.6L-0.2,167.6z"/>
	<path class="st3" d="M22.2,251.5c29,50.1,83.2,83.9,145.3,83.9s116.3-33.7,145.3-83.9l-145.3-10.9L22.2,251.5z"/>
	<path class="st4" d="M312.8,251.5c14.3-24.7,22.4-53.3,22.4-83.9H-0.2c0,30.6,8.2,59.2,22.4,83.9H312.8z"/>
</g>
<g>
	<g>
		<path class="st5" d="M-1219.5,225.5c0,8.1,6.6,14.6,14.6,14.6c31.8,0,57.1,0,88.9,0c8.1,0,14.6-6.6,14.6-14.6
			c0-36.3,14.8-69.3,38.7-93.2v0l-82.8-82.8C-1190.6,94.6-1219.5,156.9-1219.5,225.5z"/>
		<path class="st6" d="M-793.5,49.5L-793.5,49.5c-45.1-45.1-107.3-73-176-73c0,42.4,0,74.8,0,117.2c36.3,0,69.3,14.8,93.2,38.7h0
			L-793.5,49.5L-793.5,49.5z"/>
		<path class="st7" d="M-1145.5,49.5l82.8,82.8v0c23.9-23.9,56.8-38.7,93.2-38.7v0c0-42.4,0-74.8,0-117.2
			C-1038.1-23.5-1100.4,4.4-1145.5,49.5z"/>
		<path class="st8" d="M-793.5,49.5L-793.5,49.5l-82.8,82.8l0,0c23.9,23.9,38.7,56.8,38.7,93.2c0,8.1,6.6,14.6,14.6,14.6
			c31.8,0,57.1,0,88.9,0c8.1,0,14.6-6.6,14.6-14.6C-719.5,156.9-748.4,94.6-793.5,49.5z"/>
	</g>
	<path class="st9" d="M-856.4,111c-4.7-4.4-12-5-17.6-1.5c-46,29.6-80.9,51.9-126.9,81.2c-8.5,5.6-15.5,12.9-19.9,21.4
		c-12.6,22.6-8.8,51,10,69.4c19.3,19.6,49.5,22.9,72.9,8.2c9.1-6.2,16.7-14.6,21.4-24.9c23.1-49.5,40.7-87,63.9-136.5
		C-849.9,122.4-851.4,115.4-856.4,111z"/>
</g>
<g>
	<circle class="st10" cx="-1443.1" cy="745.9" r="167.7"/>
	
		<image style="overflow:visible;" width="81" height="189" id="tarjeta-credito.psd_1_" xlink:href="../../../tarjeta-credito.png"  transform="matrix(1.9767 0 0 1.9767 -1539 540)">
	</image>
</g>
<g>
	<circle class="st10" cx="-895" cy="789.6" r="167.7"/>
	
		<image style="overflow:visible;" width="88" height="197" id="celular-propio.psd_1_" xlink:href="../../../celular-propio.png"  transform="matrix(1.9767 0 0 1.9767 -982 568)">
	</image>
</g>
</svg>
