<?xml version="1.0" encoding="utf-8"?>
<!-- Generator: Adobe Illustrator 21.1.0, SVG Export Plug-In . SVG Version: 6.00 Build 0)  -->
<svg version="1.1" id="Capa_1" xmlns="http://www.w3.org/2000/svg" xmlns:xlink="http://www.w3.org/1999/xlink" x="0px" y="0px"
	 viewBox="0 0 512 512" style="enable-background:new 0 0 512 512;" xml:space="preserve">
<style type="text/css">
	.st0{fill:#009BDB;}
	.st1{fill:#5799D7;}
</style>
<g>
	<g>
		<path class="st0" d="M7096.6-375.5C7096.5-375.5,7096.5-375.5,7096.6-375.5h-427.7c-4,0-7.3,3.3-7.3,7.3c0,0,0,0,0,0v205.3
			c0,4,3.3,7.3,7.3,7.3c0,0,0,0,0,0h290.8c4,0,7.3-3.3,7.3-7.3c0-4-3.3-7.3-7.3-7.3h-283.5v-190.6h413v18.3c0,4,3.3,7.3,7.3,7.3
			c0,0,0,0,0,0c4,0,7.3-3.3,7.3-7.3c0,0,0,0,0,0v-25.7C7103.9-372.2,7100.6-375.5,7096.6-375.5z"/>
	</g>
</g>
<g>
	<g>
		<path class="st0" d="M6285-330.2l-342.1-77c-1.9-0.4-3.9-0.1-5.5,1c-1.6,1-2.8,2.7-3.2,4.6l-17.1,77c-0.9,4,1.6,7.9,5.6,8.8
			c4,0.9,7.9-1.6,8.8-5.6l15.5-69.8l335,75.4c0.5,0.1,1.1,0.2,1.6,0.2c4,0,7.3-3.3,7.3-7.3C6290.7-326.5,6288.3-329.4,6285-330.2z"
			/>
	</g>
</g>
<g>
	<g>
		<path class="st0" d="M6544.3-371.4L6339-456.9c-3.6-1.5-7.7,0-9.4,3.5l-17.1,34.2c-1.9,3.6-0.6,8,3,10c3.6,1.9,8,0.6,10-3
			c0.1-0.1,0.1-0.3,0.2-0.4v0l14-28.1l199,82.9c3.7,1.6,8.1-0.2,9.6-4C6549.8-365.5,6548-369.8,6544.3-371.4z"/>
	</g>
</g>
<g>
	<g>
		<path class="st0" d="M6155-179.9h-67.9c-4,0-7.3,3.3-7.3,7.3c0,4,3.3,7.3,7.3,7.3h67.9c4,0,7.3-3.3,7.3-7.3
			C6162.4-176.6,6159.1-179.9,6155-179.9z"/>
	</g>
</g>
<g>
	<g>
		<path class="st0" d="M6282.1-315.8c-41.6,0-75.3,33.7-75.3,75.3c0,41.6,33.7,75.2,75.3,75.3c41.6,0,75.3-33.7,75.3-75.3
			S6323.7-315.8,6282.1-315.8z M6282.1-178.9c-34,0-61.6-27.6-61.6-61.6c0-34,27.6-61.5,61.6-61.6c34,0,61.6,27.6,61.6,61.6
			S6316.2-178.9,6282.1-178.9z"/>
	</g>
</g>
<g>
	<g>
		<path class="st0" d="M6487.4-291.8c-45.3,0-94.1,10.7-94.1,34.2v205.3c0,23.5,48.8,34.2,94.1,34.2c45.3,0,94.1-10.7,94.1-34.2
			v-205.3C6581.5-281.1,6532.8-291.8,6487.4-291.8z M6564.4-52.4c-1.3,4.7-26.9,17.2-77,17.2s-75.7-12.5-77-17.1v-13.4
			c18.2,9.2,48.3,13.4,77,13.4s58.8-4.3,77-13.5V-52.4z M6564.4-86.6c-1.3,4.7-26.9,17.2-77,17.2s-75.7-12.5-77-17.1V-100
			c18.2,9.2,48.3,13.4,77,13.4s58.8-4.3,77-13.5V-86.6z M6564.4-120.9c-1.3,4.7-26.9,17.2-77,17.2s-75.7-12.5-77-17.1v-13.4
			c18.2,9.2,48.3,13.4,77,13.4s58.8-4.3,77-13.5V-120.9z M6564.4-155.1c-1.3,4.7-26.9,17.2-77,17.2s-75.7-12.5-77-17.1v-13.4
			c18.2,9.2,48.3,13.4,77,13.4s58.8-4.3,77-13.5V-155.1z M6564.4-189.3c-1.3,4.7-26.9,17.2-77,17.2s-75.7-12.5-77-17.1v-13.4
			c18.2,9.1,48.3,13.4,77,13.4s58.8-4.3,77-13.5V-189.3z M6564.4-223.5c-1.3,4.7-26.9,17.2-77,17.2s-75.7-12.5-77-17.1v-13.4
			c18.2,9.1,48.3,13.4,77,13.4s58.8-4.3,77-13.5V-223.5z M6487.4-240.5c-50,0-75.6-12.5-77-17v-0.1c1.4-4.8,27-17.2,77-17.2
			c49.6,0,75.3,12.3,77,17.1C6562.7-252.7,6537-240.5,6487.4-240.5z"/>
	</g>
</g>
<g>
	<g>
		<path class="st0" d="M6213.7-179.4H6149l-30.7-33.5v-55.6l33.9-33.1h61.5c4,0,7.3-3.3,7.3-7.3c0-4-3.3-7.3-7.3-7.3h-64.4
			c-1.9,0-3.8,0.7-5.1,2.1l-38.2,37.3c-1.4,1.7-2.2,3.8-2.2,6v60.8c0,1.8,0.7,3.6,1.9,4.9l34.8,38c1.4,1.5,3.4,2.4,5.4,2.4h67.9
			c4,0,7.3-3.3,7.3-7.3S6217.8-179.4,6213.7-179.4z"/>
	</g>
</g>
<g>
	<g>
		<path class="st0" d="M6286.4-249h-8.6c-2.7,0-4.3-1.5-4.3-2.1s1.6-2.1,4.3-2.1h21.4c4.7,0,8.6-3.8,8.6-8.6s-3.8-8.6-8.6-8.6h-8.6
			c0-4.7-3.8-8.6-8.6-8.6c-4.7,0-8.6,3.8-8.6,8.6v0.4c-9.5,1.3-16.7,9.2-17.1,18.8c0.6,11.2,10.2,19.8,21.4,19.3h8.6
			c2.7,0,4.3,1.5,4.3,2.1s-1.6,2.1-4.3,2.1H6265c-4.7,0-8.6,3.8-8.6,8.6c0,4.7,3.8,8.6,8.6,8.6h8.6c0,4.7,3.8,8.6,8.6,8.6
			c4.7,0,8.6-3.8,8.6-8.6v-0.4c9.5-1.3,16.7-9.2,17.1-18.8C6307.2-241,6297.6-249.6,6286.4-249z"/>
	</g>
</g>
<g>
	<g>
		<path class="st1" d="M277.8,1.7c-42.9,0-77.7,34.8-77.7,77.7s34.8,77.7,77.7,77.7s77.7-34.8,77.7-77.7S320.8,1.7,277.8,1.7z
			 M324.6,126.2c-12.5,12.5-29.1,19.4-46.7,19.4c-17.7,0-34.3-6.9-46.7-19.4c-12.5-12.5-19.4-29.1-19.4-46.7s6.9-34.3,19.4-46.7
			c12.5-12.5,29.1-19.4,46.7-19.4c17.7,0,34.3,6.9,46.7,19.4c12.5,12.5,19.4,29.1,19.4,46.7S337.1,113.7,324.6,126.2z"/>
		<g>
			<path class="st1" d="M285.8,115.1h-15.9c-13.1,0-23.8-10.7-23.8-23.8H262c0,4.4,3.6,7.9,7.9,7.9h15.9c4.4,0,7.9-3.6,7.9-7.9
				s-3.6-7.9-7.9-7.9h-15.9c-13.1,0-23.8-10.7-23.8-23.8s10.7-23.8,23.8-23.8h15.9c13.1,0,23.8,10.7,23.8,23.8h-15.9
				c0-4.4-3.6-7.9-7.9-7.9h-15.9c-4.4,0-7.9,3.6-7.9,7.9s3.6,7.9,7.9,7.9h15.9c13.1,0,23.8,10.7,23.8,23.8S298.9,115.1,285.8,115.1z
				"/>
			<rect x="269.9" y="27.9" class="st1" width="15.9" height="15.9"/>
			<rect x="269.9" y="107.2" class="st1" width="15.9" height="15.9"/>
		</g>
		<rect x="200.1" y="142.8" class="st1" width="155.5" height="19.4"/>
		<path class="st1" d="M365.3,512H180.7v-68h-77.7v-90.6L50,332.2l53.6-92c-0.5-5.3-0.7-10.2-0.7-14.9c0-64.3,35.7-122.3,93.1-151.5
			l8.8,17.3c-50.9,25.9-82.5,77.3-82.5,134.2c0,4.9,0.3,10.2,0.9,16.1l0.3,3.2l-45.5,78l44.2,17.7v84.3h77.7v68h145.7v-97.1l4.4-2.9
			c47.3-30.7,73.3-90.1,73.3-167.2c0-52.8-28.4-102.5-74.1-129.5l9.9-16.7C411,109.6,443,165.7,443,225.4
			c0,81.6-27.6,145.4-77.7,180.5L365.3,512L365.3,512z"/>
	</g>
</g>
</svg>
