<?xml version="1.0" encoding="utf-8"?>
<!-- Generator: Adobe Illustrator 18.0.0, SVG Export Plug-In . SVG Version: 6.00 Build 0)  -->
<!DOCTYPE svg PUBLIC "-//W3C//DTD SVG 1.1//EN" "http://www.w3.org/Graphics/SVG/1.1/DTD/svg11.dtd">
<svg version="1.1" id="Layer_1" xmlns="http://www.w3.org/2000/svg" xmlns:xlink="http://www.w3.org/1999/xlink" x="0px" y="0px"
	 viewBox="1192.9 1028.2 1015.7 470.8" enable-background="new 1192.9 1028.2 1015.7 470.8" xml:space="preserve">
<g>
	<g>
		<path fill="#131718" d="M1297.3,1437H1275l-9.1,60.9h-5.4l9.1-60.9h-23l0.7-4.6h50.7L1297.3,1437z"/>
		<path fill="#131718" d="M1325.2,1453.9l-3.8-0.3c-3.3,0-6.2,1-8.7,3c-2.5,2-4.5,4.7-6,8l-5,33.3h-5.4l7.3-48.6h4.7l-0.5,8.1v0.3
			c1.8-2.9,4-5.2,6.7-6.8c2.6-1.6,5.6-2.4,8.9-2.4c0.6,0,1.3,0.1,1.9,0.2s1.1,0.2,1.5,0.3L1325.2,1453.9z"/>
		<path fill="#131718" d="M1360.9,1497.9c-0.1-1.9-0.1-3.4-0.1-4.5s0.1-2.4,0.3-3.6c-2.1,2.6-4.7,4.8-8,6.5
			c-3.3,1.7-6.9,2.6-10.8,2.6c-4.6,0-8-1.3-10.4-3.8c-2.3-2.6-3.2-6-2.5-10.3c0.7-4.5,3.1-8.1,7.3-10.7c4.2-2.6,9.3-3.9,15.5-3.9h12
			l0.9-6c0.5-3.6-0.2-6.4-2-8.3c-1.9-1.9-4.8-2.9-8.9-2.9c-3.5,0-6.6,0.9-9.2,2.7s-4.1,4.1-4.5,6.8h-4.9l-0.1-0.3
			c0.4-3.8,2.4-7,6.1-9.7c3.7-2.7,8.2-4.1,13.6-4.1c5.2,0,9.2,1.4,12.1,4.1c2.9,2.8,4,6.7,3.3,11.7l-3.6,23.9
			c-0.3,1.8-0.4,3.4-0.5,5c-0.1,1.6,0,3.2,0.3,4.8L1360.9,1497.9L1360.9,1497.9z M1343.6,1494.1c4,0,7.6-1,11-3
			c3.4-2,5.9-4.5,7.4-7.5l1.4-9.4h-12c-4.2,0-7.9,1-11.2,3.1c-3.3,2.1-5.1,4.6-5.6,7.5c-0.4,2.8,0.1,5.1,1.7,6.7
			C1338,1493.2,1340.4,1494.1,1343.6,1494.1z"/>
		<path fill="#131718" d="M1400.3,1498.8c-6.1,0-10.8-2.2-14.2-6.7c-3.4-4.5-4.6-10.2-3.5-17.1l0.4-2.5c1-7.3,3.9-13.1,8.5-17.6
			c4.6-4.4,9.9-6.6,15.8-6.6c5.7,0,9.9,1.9,12.7,5.8c2.7,3.8,3.6,8.9,2.7,15.2l-0.6,4.2h-33.9l-0.2,1.5c-0.9,5.8-0.2,10.4,2.1,14
			c2.3,3.6,5.9,5.3,10.9,5.3c2.8,0,5.6-0.5,8.3-1.5s5-2.3,6.9-3.9l1.8,3.7c-2,1.8-4.4,3.3-7.4,4.5
			C1407.5,1498.2,1404.1,1498.8,1400.3,1498.8z M1406.6,1452.9c-4,0-7.5,1.5-10.7,4.5c-3.2,3-5.4,6.7-6.5,11.2l0.1,0.3h27.9l0.1-1.1
			c0.7-4.5,0.1-8.1-1.8-10.8C1413.9,1454.3,1410.9,1452.9,1406.6,1452.9z"/>
		<path fill="#131718" d="M1442.8,1456.9c1.9-2.8,4.3-4.9,7.1-6.4c2.8-1.5,6-2.2,9.6-2.2c3.5,0,6.4,0.9,8.7,2.7
			c2.2,1.8,3.7,4.5,4.3,8.1c1.9-3.4,4.4-6,7.4-7.9c3-1.9,6.5-2.8,10.4-2.8c5,0,8.7,1.7,11.1,5.2c2.4,3.5,3.1,8.8,2,15.9l-4.3,28.4
			h-5.4l4.3-28.5c0.9-6.2,0.5-10.5-1.2-12.9s-4.5-3.5-8.3-3.5c-4,0-7.3,1.3-10,3.9c-2.7,2.6-4.7,5.9-5.9,9.8l-0.3,2l-4.4,29.2h-5.4
			l4.3-28.5c0.9-6.1,0.5-10.4-1.2-12.8s-4.5-3.6-8.3-3.6c-3.7,0-6.8,1-9.4,3c-2.5,2-4.6,4.6-6,7.9l-5.1,34h-5.4l7.3-48.6h4.8
			L1442.8,1456.9z"/>
		<path fill="#131718" d="M1516.3,1472.8c1.1-7.4,3.9-13.4,8.5-17.8c4.6-4.5,10.1-6.7,16.7-6.7c6.2,0,11,2.3,14.4,6.9
			s4.5,10.5,3.5,17.6l-0.2,1.5c-1.1,7.5-4,13.4-8.5,17.8c-4.5,4.4-10.1,6.7-16.6,6.7c-6.3,0-11.1-2.3-14.5-6.9
			c-3.4-4.6-4.5-10.5-3.4-17.6L1516.3,1472.8z M1521.5,1474.3c-0.9,5.8-0.2,10.6,2,14.4c2.3,3.7,6,5.6,11.1,5.6
			c4.8,0,9-1.9,12.5-5.8c3.5-3.9,5.7-8.6,6.6-14.1l0.2-1.5c0.8-5.8,0.1-10.5-2.2-14.3c-2.3-3.8-6-5.6-11-5.6c-4.8,0-9,2-12.5,5.9
			s-5.7,8.6-6.5,14.1L1521.5,1474.3z"/>
		<path fill="#131718" d="M1600.2,1485.4c0.3-2.4-0.4-4.4-2-6c-1.6-1.6-4.8-3-9.6-4.1c-5.6-1.2-9.6-2.8-12.1-4.9s-3.5-5-3-8.7
			c0.5-3.9,2.5-7.1,6-9.6c3.4-2.5,7.8-3.8,13-3.8s9.3,1.4,12.3,4.2c3,2.8,4.1,6.1,3.4,10.1l-0.1,0.3h-5c0.4-2.8-0.4-5.1-2.4-7
			c-2-1.9-4.9-2.9-8.7-2.9c-3.7,0-6.8,0.9-9.1,2.6c-2.3,1.7-3.6,3.7-3.9,5.9c-0.3,2.3,0.3,4.2,1.8,5.6s4.7,2.7,9.6,3.8
			c5.5,1.3,9.6,3,12.2,5.3c2.6,2.3,3.7,5.3,3.1,9.1c-0.6,4.2-2.7,7.5-6.3,10s-8.1,3.7-13.6,3.7c-5.7,0-10-1.4-13.1-4.3
			c-3.1-2.8-4.3-6.2-3.6-10l0.1-0.3h4.9c-0.3,3.5,0.8,6.1,3.3,7.6c2.4,1.6,5.4,2.4,9,2.4c3.7,0,6.9-0.9,9.4-2.6
			C1598.4,1489.9,1599.8,1487.8,1600.2,1485.4z"/>
		<path fill="#131718" d="M1661.3,1498.8c-6.1,0-10.8-2.2-14.2-6.7c-3.4-4.5-4.6-10.2-3.5-17.1l0.4-2.5c1-7.3,3.9-13.1,8.5-17.6
			c4.6-4.4,9.9-6.6,15.8-6.6c5.7,0,9.9,1.9,12.7,5.8c2.7,3.8,3.6,8.9,2.7,15.2l-0.6,4.2h-33.9l-0.2,1.5c-0.9,5.8-0.2,10.4,2.1,14
			c2.3,3.6,5.9,5.3,10.9,5.3c2.8,0,5.6-0.5,8.3-1.5c2.7-1,5-2.3,6.9-3.9l1.8,3.7c-2,1.8-4.4,3.3-7.4,4.5
			C1668.6,1498.2,1665.2,1498.8,1661.3,1498.8z M1667.7,1452.9c-4,0-7.5,1.5-10.7,4.5c-3.2,3-5.4,6.7-6.5,11.2l0.1,0.3h27.9l0.1-1.1
			c0.7-4.5,0.1-8.1-1.8-10.8C1675,1454.3,1672,1452.9,1667.7,1452.9z"/>
		<path fill="#131718" d="M1698.7,1497.9h-5.4l10.5-70.1h5.3L1698.7,1497.9z"/>
		<path fill="#18649D" d="M1743.6,1497.9l6.3-42.1h-7.6l1-6.6h7.6l0.9-6.2c0.8-5.4,2.8-9.5,5.8-12.2c3.1-2.7,7.1-4.1,12-4.1
			c1,0,2,0.1,3.1,0.3c1,0.2,2.2,0.4,3.3,0.7l-2.1,6.7c-0.5-0.1-1.2-0.2-2-0.3s-1.6-0.1-2.4-0.1c-2.5,0-4.5,0.8-6,2.4
			c-1.5,1.6-2.5,3.8-2.9,6.7l-0.9,6.2h8.8l-1,6.6h-8.8l-6.3,42.1L1743.6,1497.9L1743.6,1497.9z"/>
		<path fill="#18649D" d="M1804,1497.9l0.5-7c-1.9,2.6-4.2,4.5-6.8,5.9c-2.6,1.3-5.5,2-8.7,2c-5.1,0-9-1.7-11.5-5.1
			c-2.5-3.4-3.3-8.7-2.2-15.8l4.3-28.7h8.9l-4.3,28.8c-0.8,5.4-0.6,9,0.6,10.8c1.2,1.9,3.5,2.8,6.8,2.8c3.1,0,5.8-0.7,8-2
			c2.3-1.3,4.1-3.2,5.6-5.6l5.2-34.8h8.9l-7.3,48.6L1804,1497.9L1804,1497.9z"/>
		<path fill="#18649D" d="M1848.5,1437.5l-1.8,11.7h9.2l-1,6.6h-9.2l-4.4,29.5c-0.4,2.4-0.1,4,0.7,4.9c0.8,0.9,2,1.3,3.6,1.3
			c0.5,0,1.1-0.1,1.7-0.2s1.2-0.3,1.6-0.4l0.3,6.1c-0.8,0.5-1.8,1-3.1,1.3c-1.3,0.3-2.6,0.5-3.9,0.5c-3.5,0-6.2-1.1-8-3.3
			c-1.9-2.2-2.5-5.6-1.7-10.2l4.4-29.5h-7.7l1-6.6h7.7l1.8-11.7L1848.5,1437.5L1848.5,1437.5z"/>
		<path fill="#18649D" d="M1891.9,1497.9l0.5-7c-1.9,2.6-4.2,4.5-6.8,5.9c-2.6,1.3-5.5,2-8.7,2c-5.1,0-9-1.7-11.5-5.1
			c-2.5-3.4-3.3-8.7-2.2-15.8l4.3-28.7h8.9l-4.3,28.8c-0.8,5.4-0.6,9,0.6,10.8c1.2,1.9,3.5,2.8,6.8,2.8c3.1,0,5.8-0.7,8-2
			c2.3-1.3,4.1-3.2,5.6-5.6l5.2-34.8h8.9l-7.3,48.6L1891.9,1497.9L1891.9,1497.9z"/>
		<path fill="#18649D" d="M1944.2,1457.1l-4.5-0.3c-2.3,0-4.3,0.6-6.1,1.7c-1.8,1.2-3.3,2.8-4.5,4.9l-5.2,34.5h-8.9l7.3-48.6h7.9
			l-0.2,6.9c1.7-2.5,3.7-4.4,5.9-5.7c2.2-1.4,4.7-2,7.3-2c0.6,0,1.3,0.1,1.9,0.2s1.1,0.2,1.5,0.3L1944.2,1457.1z"/>
		<path fill="#18649D" d="M1950.4,1473.1c1.1-7.5,3.9-13.5,8.5-18c4.5-4.5,10.2-6.8,16.9-6.8c6.5,0,11.4,2.3,14.7,7
			c3.3,4.7,4.5,10.6,3.4,17.7l-0.2,1c-1.1,7.5-4,13.5-8.5,18c-4.5,4.5-10.2,6.7-17,6.7c-6.5,0-11.4-2.3-14.7-7
			c-3.3-4.7-4.5-10.6-3.4-17.7L1950.4,1473.1z M1959.1,1474.1c-0.8,5.3-0.4,9.6,1.3,12.9c1.7,3.3,4.7,4.9,9,4.9
			c4,0,7.5-1.7,10.2-5.1c2.8-3.4,4.5-7.6,5.3-12.7l0.2-1c0.8-5.3,0.3-9.6-1.4-12.9c-1.7-3.3-4.7-4.9-9-4.9c-4.1,0-7.5,1.7-10.3,5.1
			s-4.5,7.7-5.2,12.7L1959.1,1474.1z"/>
	</g>
	<g>
		<path fill="#131718" d="M1474.7,1089.8h-105.1l-46.4,310.3h-73.6l46.4-310.3h-103.1l8.3-56.7H1483L1474.7,1089.8z"/>
		<path fill="#131718" d="M1681.6,1238.7h-136.1l-15.9,104.9h162.1l-8.6,56.5h-235.4l54.9-367h234.9l-8.3,56.7h-161.6l-13.9,92.3
			h136.4L1681.6,1238.7z"/>
		<path fill="#131718" d="M1914.8,1393.6c-5.7-5.4-3.9-7.7-4.1-19.9c-0.2-12.2,0.6-24.3,2.3-36.4l4-26c2.9-19,0.1-33.4-8.3-43.2
			c-8.4-9.8-21.9-14.7-40.6-14.7h-58.5l-21.9,146.7h-73.6l54.9-367h127c40.2,0,71,9.6,92.6,28.9c21.6,19.2,29.9,45.7,24.8,79.5
			c-3,19.8-10.5,36.5-22.4,49.9s-28.3,24.3-49.2,32.5c20.2,6.7,34.1,17.6,41.7,32.5c7.6,15,8.5,23.9,5.3,45.2L1914.8,1393.6z
			 M1818.3,1196.6h52.2c19.8,0,35.6-4.4,47.4-13.2c11.8-8.8,19-21.7,21.7-38.7c2.5-17.3-0.5-30.8-9.1-40.5
			c-8.6-9.7-22.8-14.5-42.6-14.5h-53.4L1818.3,1196.6z"/>
	</g>
	<g>
		<g>
			<polygon fill="#18649D" points="2203.7,1028.4 2114.3,1028.4 2043.8,1497.8 2133.2,1497.8 			"/>
			<polygon fill="#67C4D0" points="1917.9,1400.5 2203.7,1028.4 2115.4,1028.2 1889.8,1331.3 1879.4,1400.7 			"/>
			<polygon fill="#1194C8" points="1879.4,1400.7 2198.2,1400.8 2208.6,1331.4 1889.8,1331.3 			"/>
		</g>
		<polygon opacity="0.6" fill="#464849" enable-background="new    " points="2203.7,1028.4 2086.7,1211.7 2092.9,1170.4 		"/>
		<polygon opacity="0.6" fill="#464849" enable-background="new    " points="2058.4,1400.7 2143.6,1429 2147.8,1400.7 		"/>
	</g>
</g>
</svg>
